<?xml version="1.0" encoding="UTF-8"?>
<!DOCTYPE svg  PUBLIC '-//W3C//DTD SVG 1.1//EN'  'http://www.w3.org/Graphics/SVG/1.1/DTD/svg11.dtd'>
<svg clip-rule="evenodd" stroke-linecap="round" stroke-linejoin="round" version="1.1" viewBox="0 0 185.849 167.175" xml:space="preserve" xmlns="http://www.w3.org/2000/svg" xmlns:xlink="http://www.w3.org/1999/xlink">
<g stroke-linecap="round" stroke-linejoin="round" stroke-width="3.72">
<path d="m1973.6 434.14c-1.24 0-2.26 2.444-2.26 5.451v18.591h-21.67c-3.37 0-6.1 0.93-6.1 2.044v2.774c0 1.113 2.73 1.995 6.1 1.995h21.67v18.396c0 3.007 1.02 5.451 2.26 5.451h3.1c1.24 0 2.21-2.444 2.21-5.451v-18.396h19.88c3.37 0 6.1-0.882 6.1-1.995v-2.774c0-1.114-2.73-2.044-6.1-2.044h-19.88v-18.591c0-3.007-0.97-5.451-2.21-5.451h-3.1z" fill="#c7c6d3" stroke="#c7c6d3"/>
<path d="m1973.6 434.14c-1.24 0-2.26 2.444-2.26 5.451v18.591h-21.67c-3.37 0-6.1 0.93-6.1 2.044v2.774c0 1.113 2.73 1.995 6.1 1.995h21.67v18.396c0 3.007 1.02 5.451 2.26 5.451h3.1c1.24 0 2.21-2.444 2.21-5.451v-18.396h19.88c3.37 0 6.1-0.882 6.1-1.995v-2.774c0-1.114-2.73-2.044-6.1-2.044h-19.88v-18.591c0-3.007-0.97-5.451-2.21-5.451h-3.1z" fill="#c7c6d3" stroke="#c7c6d3"/>
<path d="m90.613 1.8133c-3.7491-3.7e-4 -6.8506 7.4033-6.8506 16.513v56.32h-65.638c-10.204 0-18.481 2.82-18.481 6.1923v8.4038c2.33e-4 3.3723 8.2765 6.0449 18.481 6.0449h65.638v55.73c-6e-4 9.11 3.1011 16.513 6.8506 16.513h9.3999c3.749 0 6.691-7.403 6.691-16.513v-55.73h60.221c10.205-1e-4 18.481-2.6727 18.481-6.0449v-8.4038c-1e-3 -3.3723-8.277-6.1923-18.481-6.1923h-60.221v-56.32c0-9.1093-2.942-16.513-6.691-16.513h-9.3999z" fill="#cad0d5" stroke="#cad0d5"/>
</g>
</svg>
