<?xml version="1.0" encoding="UTF-8"?>
<!DOCTYPE svg  PUBLIC '-//W3C//DTD SVG 1.1//EN'  'http://www.w3.org/Graphics/SVG/1.1/DTD/svg11.dtd'>
<svg clip-rule="evenodd" stroke-linecap="round" stroke-linejoin="round" version="1.1" viewBox="0 0 447.71 327.06" xml:space="preserve" xmlns="http://www.w3.org/2000/svg"  xmlns:xlink="http://www.w3.org/1999/xlink">
<g>
<g>
<path d="m327.17 45.693c-65.382 0-118.35 53.021-118.35 118.35 0 65.33 52.969 118.1 118.35 118.1s118.6-52.772 118.6-118.1c0-65.33-53.217-118.35-118.6-118.35z" fill="#f5f5f5"/>
<path d="m326.42 52.903c61.448 0 111.14 49.615 111.14 110.89s-49.692 111.14-111.14 111.14c-61.449 0-111.39-49.863-111.39-111.14s49.94-110.89 111.39-110.89z" fill="#a2cfe3"/>
<path d="m326.42 51.251c-61.855 0-112.13 50.242-112.13 112.29 0 62.051 50.271 112.54 112.13 112.54s111.88-50.494 111.88-112.54c0-62.052-50.021-112.29-111.88-112.29z"/>
<path d="m270.47 163.67c0-30.779 24.994-55.73 55.826-55.73 30.831 0 55.825 24.951 55.825 55.73 0 30.78-24.994 55.731-55.825 55.731-30.832 0-55.826-24.951-55.826-55.731z" fill="#f5f5f5"/>
<path d="m277.44 163.67c0-27.008 21.873-48.903 48.855-48.903s48.855 21.895 48.855 48.903c0 27.009-21.873 48.904-48.855 48.904s-48.855-21.895-48.855-48.904z"/>
<path d="m285.37 163.66c0-22.522 18.329-40.779 40.938-40.779s40.938 18.257 40.938 40.779-18.329 40.78-40.938 40.78-40.938-18.258-40.938-40.78z" fill="#fff"/>
<path d="m293.75 163.67c0-18.098 14.571-32.769 32.547-32.769 17.975 0 32.547 14.671 32.547 32.769 0 18.099-14.572 32.77-32.547 32.77-17.976 0-32.547-14.671-32.547-32.77z" fill="#fff"/>
<path d="m326.42 156.58c3.829 0 6.962 3.133 6.962 6.962s-3.133 6.962-6.962 6.962-6.962-3.133-6.962-6.962 3.133-6.962 6.962-6.962z" fill="#fd9f28"/>
<path d="m326.42 156.58c3.829 0 6.962 3.133 6.962 6.962s-3.133 6.962-6.962 6.962-6.962-3.133-6.962-6.962 3.133-6.962 6.962-6.962z" fill="#fd9f28"/>
<path d="m326.29 150.37c-7.293 0-13.178 5.818-13.178 13.178s5.885 13.427 13.178 13.427c7.292 0 13.177-6.067 13.177-13.427s-5.885-13.178-13.177-13.178z"/>
<path d="m326.42 156.58c3.829 0 6.962 3.133 6.962 6.962s-3.133 6.962-6.962 6.962-6.962-3.133-6.962-6.962 3.133-6.962 6.962-6.962z" fill="#fd9f28"/>
<path d="m326.31 156.38c-4.008 0-7.286 3.278-7.286 7.286s3.278 7.286 7.286 7.286 7.286-3.278 7.286-7.286-3.278-7.286-7.286-7.286z"/>
<path d="m377.62 100.16c-7.496-6.5164-11.737-6.7117-13.782-9.2502-2.044-2.5384 4.845-0.3264 5.605-0.9037 0.694-0.5272-7.391-7.3109-3.842-5.9989 3.549 1.3119 12.104 7.1374 18.038 11.247 1.378 0.9545 2.464 1.7795 3.4 2.571 3.096 2.6162 4.033 4.3022 4.033 4.3022s6.887 7.783 9.709 11.671c7.308 10.066 12.088 21.716 12.088 21.716s0.548 1.593-0.067 2.905-1.13 2.083-2.394 2.343c-3.569 0.732-5.094-2.322-5.094-2.322s-2.138-6.042-4.191-10.376c-2.053-4.335-5.569-8.699-7.302-11.09-7-9.655-8.706-10.298-16.201-16.814z" fill="#fff"/>
<path d="m354.19 86.837s-0.914-0.6919-1.148-1.8043c-0.234-1.1125-0.193-1.9363 0.213-2.6455 0.399-0.6983 0.726-1.4098 1.895-1.9334s2.781-0.1611 2.781-0.1611l10.164 4.8701s1.404 0.4173 1.819 1.6009 0.183 2.3594-0.16 3.1335c-0.309 0.6998-0.856 1.3397-2.022 1.8549-1.166 0.5153-2.643 0.2061-2.643 0.2061l-10.899-5.1212z" fill="#fff"/>
<path d="m277.2 225.64c7.496 6.516 11.737 6.712 13.781 9.25 2.045 2.539-4.844 0.327-5.604 0.904-0.694 0.527 7.391 7.311 3.842 5.999s-12.104-7.138-18.038-11.247c-1.378-0.954-2.464-1.779-3.4-2.571-3.096-2.616-4.034-4.302-4.034-4.302s-6.886-7.783-9.709-11.671c-7.307-10.065-12.088-21.716-12.088-21.716s-0.548-1.593 0.068-2.905c0.615-1.312 1.13-2.083 2.394-2.343 3.569-0.732 5.094 2.322 5.094 2.322s2.138 6.042 4.191 10.376c2.052 4.335 5.569 8.699 7.302 11.09 6.999 9.655 8.706 10.298 16.201 16.814z" fill="#fff"/>
<path d="m300.63 238.96s0.914 0.692 1.148 1.804c0.234 1.113 0.192 1.937-0.213 2.646-0.399 0.698-0.727 1.41-1.895 1.933-1.169 0.524-2.781 0.161-2.781 0.161l-10.164-4.87s-1.404-0.417-1.819-1.601c-0.415-1.183-0.183-2.359 0.16-3.133 0.309-0.7 0.855-1.34 2.022-1.855 1.166-0.515 2.643-0.206 2.643-0.206l10.899 5.121z" fill="#fff"/>
</g>
<path d="m7.2657 0h312.53c4.013 0 7.266 3.0309 7.266 6.7697v313.52c0 3.738-3.253 6.769-7.266 6.769h-312.53c-4.0127 0-7.2657-3.031-7.2657-6.769v-313.52c0-3.7388 3.253-6.7697 7.2657-6.7697z" fill="#141417" stroke="#fefefe" stroke-linecap="round" stroke-linejoin="round" stroke-width="5.72"/>
<g fill="#fefefe">
<path d="m66.461 238.52c-3.3971-12.95 9.4841-27.549 28.771-32.609 19.287-5.059 37.676 1.337 41.073 14.287 3.397 12.949-9.484 27.549-28.771 32.608-19.287 5.06-37.676-1.336-41.073-14.286z"/>
<path d="m169.76 217.71c-4.073-12.754 8.023-28.01 27.017-34.076 18.995-6.066 37.694-0.645 41.767 12.108 4.074 12.753-8.023 28.009-27.017 34.076-18.994 6.066-37.694 0.645-41.767-12.108z"/>
<path d="m123.93 87.864h9.514c1.422 0 3.091-1.3952 3.812 0.3445 0.412 0.9939 0.233 4.7257 0.233 5.9996l-0.72 131.94c0 3.504-1.091 3.248-3.325 3.248h-9.514c-2.233 0-4.044-2.841-4.044-6.345v-128.85c0-3.5038 1.811-6.3441 4.044-6.3441z"/>
<path d="m230.88 66.416l2.068 0.0187c3.417 0 6.146 1.18 6.146 5.6083v123.61c0 4.428-2.77 8.018-6.187 8.018h-1.178c-3.417 0-6.187-3.59-6.187-8.018v-123.61c0-4.4283 1.921-5.627 5.338-5.627z"/>
<path d="m238.1 67.782l0.811 1.9568c0.638 6.119-0.921 4.1438-4.641 4.7764l-103.83 17.658c-3.72 0.6326-9.417 5.7645-10.503 3.5425l0.097-3.685 0.089-4.6035c-0.083-1.4998 1.1-2.1383 2.15-2.9273 1.061-0.7962 1.995-0.8219 3.863-1.1397l103.83-17.658c3.72-0.6326 7.049-0.1423 8.134 2.0798z"/>
</g>
</g>
</svg>
