<?xml version="1.0" encoding="UTF-8"?>
<!DOCTYPE svg  PUBLIC '-//W3C//DTD SVG 1.1//EN'  'http://www.w3.org/Graphics/SVG/1.1/DTD/svg11.dtd'>
<svg clip-rule="evenodd" stroke-linecap="round" stroke-linejoin="round" version="1.1" viewBox="0 0 235.9 235.9" xml:space="preserve" xmlns="http://www.w3.org/2000/svg"  xmlns:xlink="http://www.w3.org/1999/xlink">
<g>
<path d="m118.43-0.005742c-65.382-1.012e-5 -118.35 53.021-118.35 118.35 2.02e-5 65.33 52.969 118.1 118.35 118.1 65.383 0 118.6-52.772 118.6-118.1 0-65.33-53.217-118.35-118.6-118.35z" fill="#f5f5f5"/>
<path d="m117.69 7.2042c61.449 0 111.14 49.615 111.14 110.89 0 61.277-49.692 111.14-111.14 111.14-61.448 0-111.39-49.863-111.39-111.14 0-61.277 49.941-110.89 111.39-110.89z" fill="#a2cfe3"/>
<path d="m117.69 5.5518c-61.855 4e-5 -112.13 50.242-112.13 112.29 1e-5 62.051 50.271 112.55 112.13 112.55 61.855 0 111.88-50.495 111.88-112.55 0-62.052-50.021-112.29-111.88-112.29z"/>
<path d="m61.737 117.97c0-30.779 24.994-55.731 55.825-55.731 30.832 0 55.826 24.951 55.826 55.731 0 30.779-24.994 55.73-55.826 55.73-30.831 0-55.825-24.951-55.825-55.73z" fill="#f5f5f5"/>
<path d="m68.707 117.97c0-27.009 21.873-48.904 48.855-48.904 26.982 0 48.855 21.895 48.855 48.904 0 27.008-21.873 48.903-48.855 48.903-26.982 0-48.855-21.895-48.855-48.903z"/>
<path d="m76.639 117.96c0-22.522 18.328-40.779 40.937-40.779 22.61 0 40.938 18.258 40.938 40.779 0 22.522-18.328 40.78-40.938 40.78-22.609 0-40.937-18.258-40.937-40.78z" fill="#fff"/>
<path d="m85.015 117.97c0-18.098 14.572-32.77 32.547-32.77 17.975 0 32.547 14.671 32.547 32.77 0 18.098-14.572 32.769-32.547 32.769-17.975 0-32.547-14.671-32.547-32.769z" fill="#fff"/>
<path d="m117.69 110.89c3.83 0 6.962 3.132 6.962 6.961 0 3.83-3.132 6.962-6.962 6.962-3.829 0-6.961-3.132-6.961-6.962 0-3.829 3.132-6.961 6.961-6.961z" fill="#fd9f28"/>
<path d="m117.69 110.89c3.83 0 6.962 3.132 6.962 6.961 0 3.83-3.132 6.962-6.962 6.962-3.829 0-6.961-3.132-6.961-6.962 0-3.829 3.132-6.961 6.961-6.961z" fill="#fd9f28"/>
<path d="m117.56 104.67c-7.292 0-13.178 5.818-13.178 13.177 0 7.36 5.886 13.427 13.178 13.427 7.293 0 13.178-6.067 13.178-13.427 0-7.359-5.885-13.177-13.178-13.177z"/>
<path d="m117.69 110.89c3.83 0 6.962 3.132 6.962 6.961 0 3.83-3.132 6.962-6.962 6.962-3.829 0-6.961-3.132-6.961-6.962 0-3.829 3.132-6.961 6.961-6.961z" fill="#fd9f28"/>
<path d="m117.58 110.68c-4.007 0-7.286 3.279-7.286 7.286 0 4.008 3.279 7.287 7.286 7.287 4.008 0 7.287-3.279 7.287-7.287 0-4.007-3.279-7.286-7.287-7.286z"/>
<path d="m168.88 54.462c-7.495-6.5161-11.737-6.7115-13.781-9.2499s4.844-0.3264 5.604-0.9037c0.694-0.5272-7.391-7.3109-3.842-5.9989 3.549 1.3119 12.105 7.1374 18.038 11.247 1.379 0.9545 2.464 1.7795 3.401 2.571 3.095 2.6163 4.033 4.3024 4.033 4.3024s6.886 7.7831 9.709 11.671c7.308 10.065 12.088 21.716 12.088 21.716s0.548 1.5932-0.067 2.9051c-0.616 1.3119-1.13 2.0832-2.395 2.3425-3.569 0.7323-5.093-2.3215-5.093-2.3215s-2.139-6.0421-4.191-10.377c-2.053-4.3346-5.57-8.6982-7.303-11.089-6.999-9.6553-8.705-10.298-16.201-16.815z" fill="#fff"/>
<path d="m145.45 41.138s-0.914-0.6919-1.147-1.8043c-0.234-1.1125-0.193-1.9363 0.212-2.6455 0.4-0.6983 0.727-1.4098 1.896-1.9334s2.78-0.1611 2.78-0.1611l10.165 4.8701s1.404 0.4173 1.818 1.6009c0.415 1.1835 0.183 2.3594-0.159 3.1335-0.31 0.6998-0.856 1.3397-2.023 1.8549-1.166 0.5153-2.643 0.2061-2.643 0.2061l-10.899-5.1212z" fill="#fff"/>
<path d="m68.467 179.94c7.4955 6.516 11.737 6.711 13.781 9.249 2.0442 2.539-4.8442 0.327-5.6044 0.904-0.6941 0.527 7.3912 7.311 3.8422 5.999-3.5491-1.312-12.104-7.137-18.038-11.247-1.3783-0.954-2.4636-1.779-3.4002-2.571-3.0957-2.616-4.0332-4.302-4.0332-4.302s-6.8862-7.783-9.7091-11.671c-7.3076-10.065-12.088-21.716-12.088-21.716s-0.548-1.593 0.0674-2.905 1.1299-2.083 2.3942-2.343c3.5693-0.732 5.0937 2.322 5.0937 2.322s2.1384 6.042 4.191 10.377c2.0526 4.334 5.5692 8.698 7.3025 11.089 6.9993 9.655 8.7055 10.298 16.201 16.815z" fill="#fff"/>
<path d="m91.898 193.26s0.9141 0.692 1.1478 1.805c0.2337 1.112 0.1926 1.936-0.2128 2.645-0.3992 0.698-0.7265 1.41-1.8955 1.934-1.1689 0.523-2.7804 0.161-2.7804 0.161l-10.164-4.87s-1.4041-0.418-1.8189-1.601c-0.4148-1.184-0.1827-2.36 0.1598-3.134 0.3096-0.7 0.8558-1.34 2.0221-1.855 1.1664-0.515 2.6434-0.206 2.6434-0.206l10.899 5.121z" fill="#fff"/>
</g>
</svg>
