<?xml version="1.0" encoding="UTF-8" standalone="no"?> <!-- Created with Vectornator for iOS (http://vectornator.io/) --><!DOCTYPE svg PUBLIC "-//W3C//DTD SVG 1.1//EN" "http://www.w3.org/Graphics/SVG/1.1/DTD/svg11.dtd">
<svg xmlns="http://www.w3.org/2000/svg" xmlns:vectornator="http://vectornator.io" height="100%" xmlns:xlink="http://www.w3.org/1999/xlink" xml:space="preserve" style="fill-rule:nonzero;clip-rule:evenodd;stroke-linecap:round;stroke-linejoin:round;" viewBox="0 0 1920 1080" width="100%" version="1.1">
<metadata>
<vectornator:setting value="false" key="UndoHistoryDisabled"/>
<vectornator:setting key="WDSnapToGrid" value="false"/>
<vectornator:setting key="WDGuidesVisible" value="true"/>
<vectornator:setting key="IsTimeLapseWatermarkDisabled" value="false"/>
<vectornator:setting key="WDSnapToEdges" value="false"/>
<vectornator:setting key="WDDynamicGuides" value="false"/>
<vectornator:setting value="true" key="WDRulersVisible"/>
<vectornator:setting key="WDOutlineMode" value="false"/>
<vectornator:setting key="VNSnapToGuides" value="true"/>
<vectornator:setting key="VNPencilOnly" value="false"/>
<vectornator:setting key="VNDimensionsVisible" value="true"/>
<vectornator:setting key="WDIsolateActiveLayer" value="false"/>
<vectornator:setting key="WDCMYKEnabledKey" value="false"/>
<vectornator:setting key="WDSnapToPoints" value="false"/>
<vectornator:setting value="false" key="WDDisplayWhiteBackground"/>
<vectornator:setting value="Pixels" key="WDUnits"/>
</metadata>
<defs/>
<g id="Layer 2" vectornator:layerName="Layer 2">
<path fill="#000000" opacity="1" stroke-width="3.82118" d="M58.4032+148.174C58.4032+141.394+63.169+135.898+69.048+135.898C74.927+135.898+79.5532+141.114+79.5532+147.894C79.5532+154.674+74.927+160.45+69.048+160.45C63.169+160.45+58.4032+154.954+58.4032+148.174Z" stroke="#000000" stroke-linecap="round" stroke-linejoin="round"/>
<path stroke-width="3.82118" stroke-linecap="round" fill="#000000" stroke-linejoin="round" stroke="#000000" opacity="1" d="M75.1273+46.9603L77.4712+46.9603C78.3777+46.9603+79.1126+47.7294+79.1126+48.6781L79.0166+149.539C79.0166+150.037+78.8384+151.059+78.5181+151.392C78.2284+151.693+77.9018+151.461+77.4712+151.461L75.1273+151.461C74.2208+151.461+73.4859+150.692+73.4859+149.743L73.4859+48.6781C73.4859+47.7294+74.2208+46.9603+75.1273+46.9603Z"/>
<path stroke-width="3.82118" d="M77.935+47.3822L137.405+47.3822C138.105+47.3822+138.672+48.2997+138.672+49.4316L138.672+100.596C138.672+101.728+138.105+102.645+137.405+102.645L77.935+102.645C77.235+102.645+76.6675+101.728+76.6675+100.596L76.6675+49.4316C76.6675+48.2997+77.235+47.3822+77.935+47.3822Z" stroke-linecap="round" stroke="#000000" opacity="1" stroke-linejoin="round" fill="#ffffff"/>
<path d="M86.5147+59.3295L96.5259+59.3295C97.4637+59.3295+98.224+60.2062+98.224+61.2878L98.224+71.4617C98.224+72.5433+97.4637+73.42+96.5259+73.42L86.5147+73.42C85.5768+73.42+84.8165+72.5433+84.8165+71.4617L84.8165+61.2878C84.8165+60.2062+85.5768+59.3295+86.5147+59.3295Z" stroke-linecap="round" stroke-linejoin="round" opacity="1" fill="#000000" stroke-width="3.82118" stroke="#000000"/>
<path stroke-linejoin="round" fill="#000000" opacity="1" stroke="#000000" stroke-linecap="round" stroke-width="3.82118" d="M102.79+59.7375L112.801+59.7375C113.739+59.7375+114.499+60.6143+114.499+61.6958L114.499+71.8698C114.499+72.9514+113.739+73.8281+112.801+73.8281L102.79+73.8281C101.852+73.8281+101.092+72.9514+101.092+71.8698L101.092+61.6958C101.092+60.6143+101.852+59.7375+102.79+59.7375Z"/>
<path stroke-linecap="round" fill="#000000" d="M120.838+59.4302L130.85+59.4302C131.788+59.4302+132.548+60.307+132.548+61.3885L132.548+71.5625C132.548+72.644+131.788+73.5208+130.85+73.5208L120.838+73.5208C119.901+73.5208+119.14+72.644+119.14+71.5625L119.14+61.3885C119.14+60.307+119.901+59.4302+120.838+59.4302Z" opacity="1" stroke-linejoin="round" stroke-width="3.82118" stroke="#000000"/>
<path d="M85.8896+78.9976L95.9008+78.9976C96.8386+78.9976+97.5989+79.8744+97.5989+80.9559L97.5989+91.1299C97.5989+92.2114+96.8386+93.0882+95.9008+93.0882L85.8896+93.0882C84.9517+93.0882+84.1915+92.2114+84.1915+91.1299L84.1915+80.9559C84.1915+79.8744+84.9517+78.9976+85.8896+78.9976Z" stroke="#000000" stroke-width="3.82118" stroke-linecap="round" fill="#000000" opacity="1" stroke-linejoin="round"/>
<path stroke="#000000" stroke-linecap="round" fill="#000000" stroke-linejoin="round" opacity="1" stroke-width="3.82118" d="M103.686+78.9954L113.698+78.9954C114.636+78.9954+115.396+79.8722+115.396+80.9538L115.396+91.1277C115.396+92.2093+114.636+93.086+113.698+93.086L103.686+93.086C102.749+93.086+101.988+92.2093+101.988+91.1277L101.988+80.9538C101.988+79.8722+102.749+78.9954+103.686+78.9954Z"/>
<path stroke-linecap="round" stroke-linejoin="round" opacity="1" stroke-width="3.82118" fill="#000000" d="M120.531+79.4404L130.542+79.4404C131.48+79.4404+132.24+80.3172+132.24+81.3987L132.24+91.5727C132.24+92.6542+131.48+93.531+130.542+93.531L120.531+93.531C119.593+93.531+118.832+92.6542+118.832+91.5727L118.832+81.3987C118.832+80.3172+119.593+79.4404+120.531+79.4404Z" stroke="#000000"/>
<path stroke="#000000" stroke-width="3.82118" d="M138.065+49.6678L140.131+49.6678C140.93+49.6678+141.578+50.4194+141.578+51.3467L141.494+149.928C141.494+150.414+141.337+151.414+141.054+151.739C140.799+152.034+140.511+151.806+140.131+151.806L138.065+151.806C137.265+151.806+136.617+151.055+136.617+150.127L136.617+51.3467C136.617+50.4194+137.265+49.6678+138.065+49.6678Z" stroke-linecap="round" stroke-linejoin="round" fill="#000000" opacity="1"/>
<path stroke="#000000" stroke-width="3.82118" fill="#ffffff" stroke-linecap="round" stroke-linejoin="round" opacity="1" d="M79.1403+103.176L137.477+103.176C138.141+103.176+138.679+103.161+138.679+103.141L138.679+103.141C138.679+103.121+138.141+103.105+137.477+103.105L79.1403+103.105C78.4766+103.105+77.9386+103.121+77.9386+103.141L77.9386+103.141C77.9386+103.161+78.4766+103.176+79.1403+103.176Z"/>
<path stroke-width="3.82118" stroke-linejoin="round" fill="#000000" stroke="#000000" d="M120.649+148.541C120.649+141.761+125.415+136.265+131.293+136.265C137.172+136.265+141.799+141.482+141.799+148.261C141.799+155.041+137.172+160.817+131.293+160.817C125.415+160.817+120.649+155.321+120.649+148.541Z" opacity="1" stroke-linecap="round"/>
<g opacity="1">
<path d="M79.034+376.504L64.844+376.504L61.346+386.734L52.304+386.734L68.936+340.204L75.602+340.204L92.234+386.734L82.73+386.734L79.034+376.504ZM67.154+369.244L77.054+369.244L73.622+358.948L72.236+351.688L71.906+351.688L70.52+359.014L67.154+369.244Z" opacity="1" fill="#3b4252"/>
<path d="M126.356+377.626C126.356+376.746+125.982+376.042+125.234+375.514C124.486+374.986+123.562+374.502+122.462+374.062C121.362+373.622+120.152+373.171+118.832+372.709C117.512+372.247+116.302+371.609+115.202+370.795C114.102+369.981+113.178+368.947+112.43+367.693C111.682+366.439+111.308+364.822+111.308+362.842C111.308+359.586+112.276+357.1+114.212+355.384C116.148+353.668+118.942+352.81+122.594+352.81C125.102+352.81+127.368+353.074+129.392+353.602C131.416+354.13+133+354.724+134.144+355.384L132.23+361.588C131.218+361.192+129.942+360.774+128.402+360.334C126.862+359.894+125.3+359.674+123.716+359.674C121.164+359.674+119.888+360.664+119.888+362.644C119.888+363.436+120.262+364.074+121.01+364.558C121.758+365.042+122.682+365.493+123.782+365.911C124.882+366.329+126.092+366.78+127.412+367.264C128.732+367.748+129.942+368.375+131.042+369.145C132.142+369.915+133.066+370.916+133.814+372.148C134.562+373.38+134.936+374.964+134.936+376.9C134.936+380.244+133.869+382.873+131.735+384.787C129.601+386.701+126.4+387.658+122.132+387.658C119.8+387.658+117.611+387.361+115.565+386.767C113.519+386.173+111.858+385.48+110.582+384.688L112.958+378.286C113.97+378.858+115.312+379.419+116.984+379.969C118.656+380.519+120.372+380.794+122.132+380.794C123.408+380.794+124.431+380.552+125.201+380.068C125.971+379.584+126.356+378.77+126.356+377.626Z" opacity="1" fill="#3b4252"/>
<path d="M141.338+353.734L149.918+353.734L149.918+386.734L141.338+386.734L141.338+353.734ZM140.084+344.428C140.084+343.152+140.557+342.063+141.503+341.161C142.449+340.259+143.758+339.808+145.43+339.808C147.102+339.808+148.455+340.259+149.489+341.161C150.523+342.063+151.04+343.152+151.04+344.428C151.04+345.704+150.523+346.771+149.489+347.629C148.455+348.487+147.102+348.916+145.43+348.916C143.758+348.916+142.449+348.487+141.503+347.629C140.557+346.771+140.084+345.704+140.084+344.428Z" opacity="1" fill="#3b4252"/>
<path fill="#3b4252" opacity="1" d="M177.044+386.734L177.044+368.782C177.044+365.746+176.758+363.59+176.186+362.314C175.614+361.038+174.426+360.4+172.622+360.4C171.126+360.4+169.916+360.807+168.992+361.621C168.068+362.435+167.364+363.48+166.88+364.756L166.88+386.734L158.3+386.734L158.3+353.734L164.966+353.734L165.956+358.09L166.22+358.09C167.232+356.682+168.519+355.45+170.081+354.394C171.643+353.338+173.656+352.81+176.12+352.81C178.232+352.81+179.959+353.239+181.301+354.097C182.643+354.955+183.688+356.396+184.436+358.42C185.448+356.704+186.746+355.34+188.33+354.328C189.914+353.316+191.828+352.81+194.072+352.81C195.92+352.81+197.493+353.03+198.791+353.47C200.089+353.91+201.145+354.669+201.959+355.747C202.773+356.825+203.378+358.266+203.774+360.07C204.17+361.874+204.368+364.162+204.368+366.934L204.368+386.734L195.788+386.734L195.788+368.188C195.788+365.592+195.513+363.645+194.963+362.347C194.413+361.049+193.192+360.4+191.3+360.4C189.76+360.4+188.539+360.818+187.637+361.654C186.735+362.49+186.064+363.634+185.624+365.086L185.624+386.734L177.044+386.734Z"/>
<path opacity="1" fill="#3b4252" d="M211.43+353.734L217.7+353.734L218.69+357.694L218.954+357.694C220.098+356.022+221.451+354.79+223.013+353.998C224.575+353.206+226.478+352.81+228.722+352.81C232.858+352.81+235.96+354.119+238.028+356.737C240.096+359.355+241.13+363.568+241.13+369.376C241.13+372.192+240.8+374.733+240.14+376.999C239.48+379.265+238.501+381.19+237.203+382.774C235.905+384.358+234.321+385.568+232.451+386.404C230.581+387.24+228.436+387.658+226.016+387.658C224.652+387.658+223.53+387.559+222.65+387.361C221.77+387.163+220.89+386.844+220.01+386.404L220.01+399.934L211.43+399.934L211.43+353.734ZM226.148+360.07C224.476+360.07+223.167+360.488+222.221+361.324C221.275+362.16+220.538+363.414+220.01+365.086L220.01+378.814C220.626+379.298+221.297+379.683+222.023+379.969C222.749+380.255+223.706+380.398+224.894+380.398C227.358+380.398+229.206+379.529+230.438+377.791C231.67+376.053+232.286+373.182+232.286+369.178C232.286+366.274+231.802+364.03+230.834+362.446C229.866+360.862+228.304+360.07+226.148+360.07Z"/>
<path opacity="1" fill="#3b4252" d="M255.914+375.646C255.914+377.186+256.112+378.308+256.508+379.012C256.904+379.716+257.542+380.068+258.422+380.068C258.95+380.068+259.467+380.024+259.973+379.936C260.479+379.848+261.106+379.65+261.854+379.342L262.778+386.074C262.074+386.426+260.996+386.778+259.544+387.13C258.092+387.482+256.596+387.658+255.056+387.658C252.548+387.658+250.634+387.075+249.314+385.909C247.994+384.743+247.334+382.818+247.334+380.134L247.334+340.534L255.914+340.534L255.914+375.646Z"/>
<path d="M292.874+383.896C291.554+384.952+289.761+385.843+287.495+386.569C285.229+387.295+282.82+387.658+280.268+387.658C274.944+387.658+271.05+386.107+268.586+383.005C266.122+379.903+264.89+375.646+264.89+370.234C264.89+364.426+266.276+360.07+269.048+357.166C271.82+354.262+275.714+352.81+280.73+352.81C282.402+352.81+284.03+353.03+285.614+353.47C287.198+353.91+288.606+354.636+289.838+355.648C291.07+356.66+292.06+358.024+292.808+359.74C293.556+361.456+293.93+363.59+293.93+366.142C293.93+367.066+293.875+368.056+293.765+369.112C293.655+370.168+293.49+371.268+293.27+372.412L273.47+372.412C273.602+375.184+274.317+377.274+275.615+378.682C276.913+380.09+279.014+380.794+281.918+380.794C283.722+380.794+285.339+380.519+286.769+379.969C288.199+379.419+289.288+378.858+290.036+378.286L292.874+383.896ZM280.598+359.674C278.354+359.674+276.693+360.345+275.615+361.687C274.537+363.029+273.888+364.822+273.668+367.066L285.944+367.066C286.12+364.69+285.757+362.864+284.855+361.588C283.953+360.312+282.534+359.674+280.598+359.674Z" opacity="1" fill="#3b4252"/>
<path opacity="1" fill="#3b4252" d="M340.592+353.734L346.598+370.63L347.786+376.108L348.05+376.108L348.974+370.564L353.198+353.734L361.052+353.734L350.888+387.064L344.552+387.064L337.886+368.584L337.028+364.426L336.698+364.426L335.906+368.65L329.57+387.064L323.036+387.064L312.41+353.734L321.716+353.734L326.534+370.3L327.326+376.174L327.656+376.174L328.778+370.234L334.256+353.734L340.592+353.734Z"/>
<path fill="#3b4252" d="M364.088+355.648C365.848+354.856+367.938+354.229+370.358+353.767C372.778+353.305+375.308+353.074+377.948+353.074C380.236+353.074+382.15+353.349+383.69+353.899C385.23+354.449+386.451+355.23+387.353+356.242C388.255+357.254+388.893+358.464+389.267+359.872C389.641+361.28+389.828+362.864+389.828+364.624C389.828+366.56+389.762+368.507+389.63+370.465C389.498+372.423+389.421+374.348+389.399+376.24C389.377+378.132+389.432+379.969+389.564+381.751C389.696+383.533+390.026+385.216+390.554+386.8L383.558+386.8L382.172+382.246L381.842+382.246C380.962+383.61+379.741+384.787+378.179+385.777C376.617+386.767+374.604+387.262+372.14+387.262C370.6+387.262+369.214+387.031+367.982+386.569C366.75+386.107+365.694+385.447+364.814+384.589C363.934+383.731+363.252+382.719+362.768+381.553C362.284+380.387+362.042+379.078+362.042+377.626C362.042+375.602+362.493+373.897+363.395+372.511C364.297+371.125+365.595+370.003+367.289+369.145C368.983+368.287+371.007+367.693+373.361+367.363C375.715+367.033+378.344+366.934+381.248+367.066C381.556+364.602+381.38+362.831+380.72+361.753C380.06+360.675+378.586+360.136+376.298+360.136C374.582+360.136+372.767+360.312+370.853+360.664C368.939+361.016+367.366+361.478+366.134+362.05L364.088+355.648ZM374.978+380.2C376.694+380.2+378.058+379.815+379.07+379.045C380.082+378.275+380.83+377.45+381.314+376.57L381.314+372.28C379.95+372.148+378.641+372.126+377.387+372.214C376.133+372.302+375.022+372.5+374.054+372.808C373.086+373.116+372.316+373.556+371.744+374.128C371.172+374.7+370.886+375.426+370.886+376.306C370.886+377.538+371.249+378.495+371.975+379.177C372.701+379.859+373.702+380.2+374.978+380.2Z" opacity="1"/>
<path opacity="1" d="M409.034+372.28L410.222+377.428L410.618+377.428L411.476+372.214L416.492+353.734L425.336+353.734L415.304+383.5C414.468+385.964+413.665+388.219+412.895+390.265C412.125+392.311+411.278+394.082+410.354+395.578C409.43+397.074+408.407+398.229+407.285+399.043C406.163+399.857+404.832+400.264+403.292+400.264C401.004+400.264+399.178+399.89+397.814+399.142L399.398+392.278C400.058+392.542+400.718+392.674+401.378+392.674C402.39+392.674+403.369+392.245+404.315+391.387C405.261+390.529+405.976+388.978+406.46+386.734L392.666+353.734L402.962+353.734L409.034+372.28Z" fill="#3b4252"/>
<path d="M441.836+353.734L446.39+353.734L446.39+347.53L454.97+345.088L454.97+353.734L463.022+353.734L463.022+360.994L454.97+360.994L454.97+373.666C454.97+375.954+455.201+377.593+455.663+378.583C456.125+379.573+456.994+380.068+458.27+380.068C459.15+380.068+459.909+379.98+460.547+379.804C461.185+379.628+461.9+379.364+462.692+379.012L464.21+385.612C463.022+386.184+461.636+386.668+460.052+387.064C458.468+387.46+456.862+387.658+455.234+387.658C452.198+387.658+449.965+386.877+448.535+385.315C447.105+383.753+446.39+381.19+446.39+377.626L446.39+360.994L441.836+360.994L441.836+353.734Z" opacity="1" fill="#3b4252"/>
<path fill="#3b4252" d="M466.718+370.234C466.718+364.646+468.082+360.345+470.81+357.331C473.538+354.317+477.366+352.81+482.294+352.81C484.934+352.81+487.222+353.228+489.158+354.064C491.094+354.9+492.7+356.077+493.976+357.595C495.252+359.113+496.209+360.95+496.847+363.106C497.485+365.262+497.804+367.638+497.804+370.234C497.804+375.822+496.451+380.123+493.745+383.137C491.039+386.151+487.222+387.658+482.294+387.658C479.654+387.658+477.366+387.24+475.43+386.404C473.494+385.568+471.877+384.391+470.579+382.873C469.281+381.355+468.313+379.518+467.675+377.362C467.037+375.206+466.718+372.83+466.718+370.234ZM475.562+370.234C475.562+371.686+475.694+373.028+475.958+374.26C476.222+375.492+476.618+376.57+477.146+377.494C477.674+378.418+478.367+379.133+479.225+379.639C480.083+380.145+481.106+380.398+482.294+380.398C484.538+380.398+486.21+379.584+487.31+377.956C488.41+376.328+488.96+373.754+488.96+370.234C488.96+367.198+488.454+364.745+487.442+362.875C486.43+361.005+484.714+360.07+482.294+360.07C480.182+360.07+478.532+360.862+477.344+362.446C476.156+364.03+475.562+366.626+475.562+370.234Z" opacity="1"/>
<path d="M520.244+355.648C522.004+354.856+524.094+354.229+526.514+353.767C528.934+353.305+531.464+353.074+534.104+353.074C536.392+353.074+538.306+353.349+539.846+353.899C541.386+354.449+542.607+355.23+543.509+356.242C544.411+357.254+545.049+358.464+545.423+359.872C545.797+361.28+545.984+362.864+545.984+364.624C545.984+366.56+545.918+368.507+545.786+370.465C545.654+372.423+545.577+374.348+545.555+376.24C545.533+378.132+545.588+379.969+545.72+381.751C545.852+383.533+546.182+385.216+546.71+386.8L539.714+386.8L538.328+382.246L537.998+382.246C537.118+383.61+535.897+384.787+534.335+385.777C532.773+386.767+530.76+387.262+528.296+387.262C526.756+387.262+525.37+387.031+524.138+386.569C522.906+386.107+521.85+385.447+520.97+384.589C520.09+383.731+519.408+382.719+518.924+381.553C518.44+380.387+518.198+379.078+518.198+377.626C518.198+375.602+518.649+373.897+519.551+372.511C520.453+371.125+521.751+370.003+523.445+369.145C525.139+368.287+527.163+367.693+529.517+367.363C531.871+367.033+534.5+366.934+537.404+367.066C537.712+364.602+537.536+362.831+536.876+361.753C536.216+360.675+534.742+360.136+532.454+360.136C530.738+360.136+528.923+360.312+527.009+360.664C525.095+361.016+523.522+361.478+522.29+362.05L520.244+355.648ZM531.134+380.2C532.85+380.2+534.214+379.815+535.226+379.045C536.238+378.275+536.986+377.45+537.47+376.57L537.47+372.28C536.106+372.148+534.797+372.126+533.543+372.214C532.289+372.302+531.178+372.5+530.21+372.808C529.242+373.116+528.472+373.556+527.9+374.128C527.328+374.7+527.042+375.426+527.042+376.306C527.042+377.538+527.405+378.495+528.131+379.177C528.857+379.859+529.858+380.2+531.134+380.2Z" fill="#3b4252" opacity="1"/>
<path opacity="1" fill="#3b4252" d="M571.394+361.786C570.03+361.302+568.798+361.06+567.698+361.06C566.158+361.06+564.871+361.467+563.837+362.281C562.803+363.095+562.11+364.14+561.758+365.416L561.758+386.734L553.178+386.734L553.178+353.734L559.844+353.734L560.834+358.09L561.098+358.09C561.846+356.462+562.858+355.208+564.134+354.328C565.41+353.448+566.906+353.008+568.622+353.008C569.766+353.008+571.064+353.25+572.516+353.734L571.394+361.786Z"/>
<path d="M599.708+384.688C598.388+385.656+596.793+386.393+594.923+386.899C593.053+387.405+591.128+387.658+589.148+387.658C586.508+387.658+584.275+387.24+582.449+386.404C580.623+385.568+579.138+384.391+577.994+382.873C576.85+381.355+576.025+379.518+575.519+377.362C575.013+375.206+574.76+372.83+574.76+370.234C574.76+364.646+576.014+360.345+578.522+357.331C581.03+354.317+584.682+352.81+589.478+352.81C591.898+352.81+593.845+353.008+595.319+353.404C596.793+353.8+598.124+354.306+599.312+354.922L597.266+361.918C596.254+361.434+595.253+361.06+594.263+360.796C593.273+360.532+592.14+360.4+590.864+360.4C588.488+360.4+586.684+361.181+585.452+362.743C584.22+364.305+583.604+366.802+583.604+370.234C583.604+371.642+583.758+372.94+584.066+374.128C584.374+375.316+584.836+376.35+585.452+377.23C586.068+378.11+586.871+378.803+587.861+379.309C588.851+379.815+590.006+380.068+591.326+380.068C592.778+380.068+594.01+379.881+595.022+379.507C596.034+379.133+596.936+378.682+597.728+378.154L599.708+384.688Z" opacity="1" fill="#3b4252"/>
<path d="M625.118+386.734L625.118+367.99C625.118+365.306+624.744+363.37+623.996+362.182C623.248+360.994+621.884+360.4+619.904+360.4C618.452+360.4+617.121+360.895+615.911+361.885C614.701+362.875+613.898+364.14+613.502+365.68L613.502+386.734L604.922+386.734L604.922+340.534L613.502+340.534L613.502+357.43L613.766+357.43C614.822+356.022+616.12+354.9+617.66+354.064C619.2+353.228+621.158+352.81+623.534+352.81C625.206+352.81+626.68+353.03+627.956+353.47C629.232+353.91+630.299+354.636+631.157+355.648C632.015+356.66+632.653+358.035+633.071+359.773C633.489+361.511+633.698+363.656+633.698+366.208L633.698+386.734L625.118+386.734Z" opacity="1" fill="#3b4252"/>
<path d="M641.684+353.734L650.264+353.734L650.264+386.734L641.684+386.734L641.684+353.734ZM640.43+344.428C640.43+343.152+640.903+342.063+641.849+341.161C642.795+340.259+644.104+339.808+645.776+339.808C647.448+339.808+648.801+340.259+649.835+341.161C650.869+342.063+651.386+343.152+651.386+344.428C651.386+345.704+650.869+346.771+649.835+347.629C648.801+348.487+647.448+348.916+645.776+348.916C644.104+348.916+642.795+348.487+641.849+347.629C640.903+346.771+640.43+345.704+640.43+344.428Z" opacity="1" fill="#3b4252"/>
<path d="M670.064+371.026L671.186+376.108L671.516+376.108L672.44+370.894L678.05+353.734L687.29+353.734L673.496+387.064L668.282+387.064L653.96+353.734L663.926+353.734L670.064+371.026Z" opacity="1" fill="#3b4252"/>
<path d="M716.528+383.896C715.208+384.952+713.415+385.843+711.149+386.569C708.883+387.295+706.474+387.658+703.922+387.658C698.598+387.658+694.704+386.107+692.24+383.005C689.776+379.903+688.544+375.646+688.544+370.234C688.544+364.426+689.93+360.07+692.702+357.166C695.474+354.262+699.368+352.81+704.384+352.81C706.056+352.81+707.684+353.03+709.268+353.47C710.852+353.91+712.26+354.636+713.492+355.648C714.724+356.66+715.714+358.024+716.462+359.74C717.21+361.456+717.584+363.59+717.584+366.142C717.584+367.066+717.529+368.056+717.419+369.112C717.309+370.168+717.144+371.268+716.924+372.412L697.124+372.412C697.256+375.184+697.971+377.274+699.269+378.682C700.567+380.09+702.668+380.794+705.572+380.794C707.376+380.794+708.993+380.519+710.423+379.969C711.853+379.419+712.942+378.858+713.69+378.286L716.528+383.896ZM704.252+359.674C702.008+359.674+700.347+360.345+699.269+361.687C698.191+363.029+697.542+364.822+697.322+367.066L709.598+367.066C709.774+364.69+709.411+362.864+708.509+361.588C707.607+360.312+706.188+359.674+704.252+359.674Z" fill="#3b4252" opacity="1"/>
<path d="M740.156+355.648C741.916+354.856+744.006+354.229+746.426+353.767C748.846+353.305+751.376+353.074+754.016+353.074C756.304+353.074+758.218+353.349+759.758+353.899C761.298+354.449+762.519+355.23+763.421+356.242C764.323+357.254+764.961+358.464+765.335+359.872C765.709+361.28+765.896+362.864+765.896+364.624C765.896+366.56+765.83+368.507+765.698+370.465C765.566+372.423+765.489+374.348+765.467+376.24C765.445+378.132+765.5+379.969+765.632+381.751C765.764+383.533+766.094+385.216+766.622+386.8L759.626+386.8L758.24+382.246L757.91+382.246C757.03+383.61+755.809+384.787+754.247+385.777C752.685+386.767+750.672+387.262+748.208+387.262C746.668+387.262+745.282+387.031+744.05+386.569C742.818+386.107+741.762+385.447+740.882+384.589C740.002+383.731+739.32+382.719+738.836+381.553C738.352+380.387+738.11+379.078+738.11+377.626C738.11+375.602+738.561+373.897+739.463+372.511C740.365+371.125+741.663+370.003+743.357+369.145C745.051+368.287+747.075+367.693+749.429+367.363C751.783+367.033+754.412+366.934+757.316+367.066C757.624+364.602+757.448+362.831+756.788+361.753C756.128+360.675+754.654+360.136+752.366+360.136C750.65+360.136+748.835+360.312+746.921+360.664C745.007+361.016+743.434+361.478+742.202+362.05L740.156+355.648ZM751.046+380.2C752.762+380.2+754.126+379.815+755.138+379.045C756.15+378.275+756.898+377.45+757.382+376.57L757.382+372.28C756.018+372.148+754.709+372.126+753.455+372.214C752.201+372.302+751.09+372.5+750.122+372.808C749.154+373.116+748.384+373.556+747.812+374.128C747.24+374.7+746.954+375.426+746.954+376.306C746.954+377.538+747.317+378.495+748.043+379.177C748.769+379.859+749.77+380.2+751.046+380.2Z" fill="#3b4252" opacity="1"/>
<path fill="#3b4252" d="M781.934+375.646C781.934+377.186+782.132+378.308+782.528+379.012C782.924+379.716+783.562+380.068+784.442+380.068C784.97+380.068+785.487+380.024+785.993+379.936C786.499+379.848+787.126+379.65+787.874+379.342L788.798+386.074C788.094+386.426+787.016+386.778+785.564+387.13C784.112+387.482+782.616+387.658+781.076+387.658C778.568+387.658+776.654+387.075+775.334+385.909C774.014+384.743+773.354+382.818+773.354+380.134L773.354+340.534L781.934+340.534L781.934+375.646Z" opacity="1"/>
<path fill="#3b4252" d="M792.494+340.534L801.074+340.534L801.074+356.374L801.338+356.374C802.262+355.318+803.45+354.482+804.902+353.866C806.354+353.25+807.96+352.942+809.72+352.942C813.68+352.942+816.705+354.295+818.795+357.001C820.885+359.707+821.93+363.832+821.93+369.376C821.93+375.316+820.467+379.826+817.541+382.906C814.615+385.986+810.6+387.526+805.496+387.526C802.68+387.526+800.106+387.295+797.774+386.833C795.442+386.371+793.682+385.854+792.494+385.282L792.494+340.534ZM807.212+360.202C805.628+360.202+804.341+360.609+803.351+361.423C802.361+362.237+801.602+363.414+801.074+364.954L801.074+379.342C801.778+379.694+802.537+379.936+803.351+380.068C804.165+380.2+805.034+380.266+805.958+380.266C808.29+380.266+810.061+379.419+811.271+377.725C812.481+376.031+813.086+373.336+813.086+369.64C813.086+363.348+811.128+360.202+807.212+360.202Z" opacity="1"/>
<path d="M836.12+353.734L836.12+372.478C836.12+375.162+836.439+377.098+837.077+378.286C837.715+379.474+838.958+380.068+840.806+380.068C842.434+380.068+843.787+379.584+844.865+378.616C845.943+377.648+846.746+376.46+847.274+375.052L847.274+353.734L855.854+353.734L855.854+376.702C855.854+378.506+855.942+380.277+856.118+382.015C856.294+383.753+856.558+385.326+856.91+386.734L850.442+386.734L848.924+381.85L848.66+381.85C847.648+383.522+846.24+384.908+844.436+386.008C842.632+387.108+840.498+387.658+838.034+387.658C836.362+387.658+834.866+387.438+833.546+386.998C832.226+386.558+831.126+385.832+830.246+384.82C829.366+383.808+828.695+382.444+828.233+380.728C827.771+379.012+827.54+376.856+827.54+374.26L827.54+353.734L836.12+353.734Z" opacity="1" fill="#3b4252"/>
<path d="M882.122+386.734L882.122+368.782C882.122+365.746+881.836+363.59+881.264+362.314C880.692+361.038+879.504+360.4+877.7+360.4C876.204+360.4+874.994+360.807+874.07+361.621C873.146+362.435+872.442+363.48+871.958+364.756L871.958+386.734L863.378+386.734L863.378+353.734L870.044+353.734L871.034+358.09L871.298+358.09C872.31+356.682+873.597+355.45+875.159+354.394C876.721+353.338+878.734+352.81+881.198+352.81C883.31+352.81+885.037+353.239+886.379+354.097C887.721+354.955+888.766+356.396+889.514+358.42C890.526+356.704+891.824+355.34+893.408+354.328C894.992+353.316+896.906+352.81+899.15+352.81C900.998+352.81+902.571+353.03+903.869+353.47C905.167+353.91+906.223+354.669+907.037+355.747C907.851+356.825+908.456+358.266+908.852+360.07C909.248+361.874+909.446+364.162+909.446+366.934L909.446+386.734L900.866+386.734L900.866+368.188C900.866+365.592+900.591+363.645+900.041+362.347C899.491+361.049+898.27+360.4+896.378+360.4C894.838+360.4+893.617+360.818+892.715+361.654C891.813+362.49+891.142+363.634+890.702+365.086L890.702+386.734L882.122+386.734Z" fill="#3b4252" opacity="1"/>
<path d="M930.17+377.626C930.17+376.746+929.796+376.042+929.048+375.514C928.3+374.986+927.376+374.502+926.276+374.062C925.176+373.622+923.966+373.171+922.646+372.709C921.326+372.247+920.116+371.609+919.016+370.795C917.916+369.981+916.992+368.947+916.244+367.693C915.496+366.439+915.122+364.822+915.122+362.842C915.122+359.586+916.09+357.1+918.026+355.384C919.962+353.668+922.756+352.81+926.408+352.81C928.916+352.81+931.182+353.074+933.206+353.602C935.23+354.13+936.814+354.724+937.958+355.384L936.044+361.588C935.032+361.192+933.756+360.774+932.216+360.334C930.676+359.894+929.114+359.674+927.53+359.674C924.978+359.674+923.702+360.664+923.702+362.644C923.702+363.436+924.076+364.074+924.824+364.558C925.572+365.042+926.496+365.493+927.596+365.911C928.696+366.329+929.906+366.78+931.226+367.264C932.546+367.748+933.756+368.375+934.856+369.145C935.956+369.915+936.88+370.916+937.628+372.148C938.376+373.38+938.75+374.964+938.75+376.9C938.75+380.244+937.683+382.873+935.549+384.787C933.415+386.701+930.214+387.658+925.946+387.658C923.614+387.658+921.425+387.361+919.379+386.767C917.333+386.173+915.672+385.48+914.396+384.688L916.772+378.286C917.784+378.858+919.126+379.419+920.798+379.969C922.47+380.519+924.186+380.794+925.946+380.794C927.222+380.794+928.245+380.552+929.015+380.068C929.785+379.584+930.17+378.77+930.17+377.626Z" opacity="1" fill="#3b4252"/>
<path d="M943.37+382.51C943.37+381.014+943.865+379.826+944.855+378.946C945.845+378.066+947.066+377.626+948.518+377.626C950.366+377.626+951.818+378.242+952.874+379.474C953.93+380.706+954.458+382.334+954.458+384.358C954.458+386.338+954.15+388.043+953.534+389.473C952.918+390.903+952.159+392.091+951.257+393.037C950.355+393.983+949.387+394.731+948.353+395.281C947.319+395.831+946.384+396.238+945.548+396.502L943.04+392.938C944.228+392.454+945.262+391.662+946.142+390.562C947.022+389.462+947.506+388.296+947.594+387.064C946.582+387.196+945.625+386.888+944.723+386.14C943.821+385.392+943.37+384.182+943.37+382.51Z" opacity="1" fill="#3b4252"/>
</g>
<g opacity="1">
<path fill="#3b4252" opacity="1" d="M60.1694+486.872L60.8894+489.992L61.1294+489.992L61.6494+486.832L64.6894+475.632L70.0494+475.632L63.9694+493.672C63.4628+495.166+62.9761+496.532+62.5094+497.772C62.0428+499.012+61.5294+500.086+60.9694+500.992C60.4094+501.899+59.7894+502.599+59.1094+503.092C58.4294+503.586+57.6228+503.832+56.6894+503.832C55.3028+503.832+54.1961+503.606+53.3694+503.152L54.3294+498.992C54.7294+499.152+55.1294+499.232+55.5294+499.232C56.1428+499.232+56.7361+498.972+57.3094+498.452C57.8828+497.932+58.3161+496.992+58.6094+495.632L50.2494+475.632L56.4894+475.632L60.1694+486.872Z"/>
<path d="M71.0494+485.632C71.0494+482.246+71.8761+479.639+73.5294+477.812C75.1828+475.986+77.5028+475.072+80.4894+475.072C82.0894+475.072+83.4761+475.326+84.6494+475.832C85.8228+476.339+86.7961+477.052+87.5694+477.972C88.3428+478.892+88.9228+480.006+89.3094+481.312C89.6961+482.619+89.8894+484.059+89.8894+485.632C89.8894+489.019+89.0694+491.626+87.4294+493.452C85.7894+495.279+83.4761+496.192+80.4894+496.192C78.8894+496.192+77.5028+495.939+76.3294+495.432C75.1561+494.926+74.1761+494.212+73.3894+493.292C72.6028+492.372+72.0161+491.259+71.6294+489.952C71.2428+488.646+71.0494+487.206+71.0494+485.632ZM76.4094+485.632C76.4094+486.512+76.4894+487.326+76.6494+488.072C76.8094+488.819+77.0494+489.472+77.3694+490.032C77.6894+490.592+78.1094+491.026+78.6294+491.332C79.1494+491.639+79.7694+491.792+80.4894+491.792C81.8494+491.792+82.8628+491.299+83.5294+490.312C84.1961+489.326+84.5294+487.766+84.5294+485.632C84.5294+483.792+84.2228+482.306+83.6094+481.172C82.9961+480.039+81.9561+479.472+80.4894+479.472C79.2094+479.472+78.2094+479.952+77.4894+480.912C76.7694+481.872+76.4094+483.446+76.4094+485.632Z" fill="#3b4252" opacity="1"/>
<path fill="#3b4252" d="M98.4894+475.632L98.4894+486.992C98.4894+488.619+98.6828+489.792+99.0694+490.512C99.4561+491.232+100.209+491.592+101.329+491.592C102.316+491.592+103.136+491.299+103.789+490.712C104.443+490.126+104.929+489.406+105.249+488.552L105.249+475.632L110.449+475.632L110.449+489.552C110.449+490.646+110.503+491.719+110.609+492.772C110.716+493.826+110.876+494.779+111.089+495.632L107.169+495.632L106.249+492.672L106.089+492.672C105.476+493.686+104.623+494.526+103.529+495.192C102.436+495.859+101.143+496.192+99.6494+496.192C98.6361+496.192+97.7294+496.059+96.9294+495.792C96.1294+495.526+95.4628+495.086+94.9294+494.472C94.3961+493.859+93.9894+493.032+93.7094+491.992C93.4294+490.952+93.2894+489.646+93.2894+488.072L93.2894+475.632L98.4894+475.632Z" opacity="1"/>
<path fill="#3b4252" opacity="1" d="M139.609+475.632L143.249+485.872L143.969+489.192L144.129+489.192L144.689+485.832L147.249+475.632L152.009+475.632L145.849+495.832L142.009+495.832L137.969+484.632L137.449+482.112L137.249+482.112L136.769+484.672L132.929+495.832L128.969+495.832L122.529+475.632L128.169+475.632L131.089+485.672L131.569+489.232L131.769+489.232L132.449+485.632L135.769+475.632L139.609+475.632Z"/>
<path d="M153.849+476.792C154.916+476.312+156.183+475.932+157.649+475.652C159.116+475.372+160.649+475.232+162.249+475.232C163.636+475.232+164.796+475.399+165.729+475.732C166.663+476.066+167.403+476.539+167.949+477.152C168.496+477.766+168.883+478.499+169.109+479.352C169.336+480.206+169.449+481.166+169.449+482.232C169.449+483.406+169.409+484.586+169.329+485.772C169.249+486.959+169.203+488.126+169.189+489.272C169.176+490.419+169.209+491.532+169.289+492.612C169.369+493.692+169.569+494.712+169.889+495.672L165.649+495.672L164.809+492.912L164.609+492.912C164.076+493.739+163.336+494.452+162.389+495.052C161.443+495.652+160.223+495.952+158.729+495.952C157.796+495.952+156.956+495.812+156.209+495.532C155.463+495.252+154.823+494.852+154.289+494.332C153.756+493.812+153.343+493.199+153.049+492.492C152.756+491.786+152.609+490.992+152.609+490.112C152.609+488.886+152.883+487.852+153.429+487.012C153.976+486.172+154.763+485.492+155.789+484.972C156.816+484.452+158.043+484.092+159.469+483.892C160.896+483.692+162.489+483.632+164.249+483.712C164.436+482.219+164.329+481.146+163.929+480.492C163.529+479.839+162.636+479.512+161.249+479.512C160.209+479.512+159.109+479.619+157.949+479.832C156.789+480.046+155.836+480.326+155.089+480.672L153.849+476.792ZM160.449+491.672C161.489+491.672+162.316+491.439+162.929+490.972C163.543+490.506+163.996+490.006+164.289+489.472L164.289+486.872C163.463+486.792+162.669+486.779+161.909+486.832C161.149+486.886+160.476+487.006+159.889+487.192C159.303+487.379+158.836+487.646+158.489+487.992C158.143+488.339+157.969+488.779+157.969+489.312C157.969+490.059+158.189+490.639+158.629+491.052C159.069+491.466+159.676+491.672+160.449+491.672Z" opacity="1" fill="#3b4252"/>
<path opacity="1" fill="#3b4252" d="M186.049+495.632L186.049+484.272C186.049+482.646+185.816+481.472+185.349+480.752C184.883+480.032+184.089+479.672+182.969+479.672C181.983+479.672+181.149+479.959+180.469+480.532C179.789+481.106+179.303+481.819+179.009+482.672L179.009+495.632L173.809+495.632L173.809+475.632L177.929+475.632L178.529+478.272L178.689+478.272C179.303+477.419+180.116+476.672+181.129+476.032C182.143+475.392+183.449+475.072+185.049+475.072C186.036+475.072+186.916+475.206+187.689+475.472C188.463+475.739+189.116+476.179+189.649+476.792C190.183+477.406+190.583+478.239+190.849+479.292C191.116+480.346+191.249+481.646+191.249+483.192L191.249+495.632L186.049+495.632Z"/>
<path opacity="1" d="M193.529+475.632L196.289+475.632L196.289+471.872L201.489+470.392L201.489+475.632L206.369+475.632L206.369+480.032L201.489+480.032L201.489+487.712C201.489+489.099+201.629+490.092+201.909+490.692C202.189+491.292+202.716+491.592+203.489+491.592C204.023+491.592+204.483+491.539+204.869+491.432C205.256+491.326+205.689+491.166+206.169+490.952L207.089+494.952C206.369+495.299+205.529+495.592+204.569+495.832C203.609+496.072+202.636+496.192+201.649+496.192C199.809+496.192+198.456+495.719+197.589+494.772C196.723+493.826+196.289+492.272+196.289+490.112L196.289+480.032L193.529+480.032L193.529+475.632Z" fill="#3b4252"/>
<path fill="#3b4252" d="M217.609+475.632L220.369+475.632L220.369+471.872L225.569+470.392L225.569+475.632L230.449+475.632L230.449+480.032L225.569+480.032L225.569+487.712C225.569+489.099+225.709+490.092+225.989+490.692C226.269+491.292+226.796+491.592+227.569+491.592C228.103+491.592+228.563+491.539+228.949+491.432C229.336+491.326+229.769+491.166+230.249+490.952L231.169+494.952C230.449+495.299+229.609+495.592+228.649+495.832C227.689+496.072+226.716+496.192+225.729+496.192C223.889+496.192+222.536+495.719+221.669+494.772C220.803+493.826+220.369+492.272+220.369+490.112L220.369+480.032L217.609+480.032L217.609+475.632Z" opacity="1"/>
<path d="M232.689+485.632C232.689+482.246+233.516+479.639+235.169+477.812C236.823+475.986+239.143+475.072+242.129+475.072C243.729+475.072+245.116+475.326+246.289+475.832C247.463+476.339+248.436+477.052+249.209+477.972C249.983+478.892+250.563+480.006+250.949+481.312C251.336+482.619+251.529+484.059+251.529+485.632C251.529+489.019+250.709+491.626+249.069+493.452C247.429+495.279+245.116+496.192+242.129+496.192C240.529+496.192+239.143+495.939+237.969+495.432C236.796+494.926+235.816+494.212+235.029+493.292C234.243+492.372+233.656+491.259+233.269+489.952C232.883+488.646+232.689+487.206+232.689+485.632ZM238.049+485.632C238.049+486.512+238.129+487.326+238.289+488.072C238.449+488.819+238.689+489.472+239.009+490.032C239.329+490.592+239.749+491.026+240.269+491.332C240.789+491.639+241.409+491.792+242.129+491.792C243.489+491.792+244.503+491.299+245.169+490.312C245.836+489.326+246.169+487.766+246.169+485.632C246.169+483.792+245.863+482.306+245.249+481.172C244.636+480.039+243.596+479.472+242.129+479.472C240.849+479.472+239.849+479.952+239.129+480.912C238.409+481.872+238.049+483.446+238.049+485.632Z" fill="#3b4252" opacity="1"/>
<path fill="#3b4252" d="M270.609+488.912C270.609+489.846+270.729+490.526+270.969+490.952C271.209+491.379+271.596+491.592+272.129+491.592C272.449+491.592+272.763+491.566+273.069+491.512C273.376+491.459+273.756+491.339+274.209+491.152L274.769+495.232C274.343+495.446+273.689+495.659+272.809+495.872C271.929+496.086+271.023+496.192+270.089+496.192C268.569+496.192+267.409+495.839+266.609+495.132C265.809+494.426+265.409+493.259+265.409+491.632L265.409+467.632L270.609+467.632L270.609+488.912Z" opacity="1"/>
<path d="M277.489+475.632L282.689+475.632L282.689+495.632L277.489+495.632L277.489+475.632ZM276.729+469.992C276.729+469.219+277.016+468.559+277.589+468.012C278.163+467.466+278.956+467.192+279.969+467.192C280.983+467.192+281.803+467.466+282.429+468.012C283.056+468.559+283.369+469.219+283.369+469.992C283.369+470.766+283.056+471.412+282.429+471.932C281.803+472.452+280.983+472.712+279.969+472.712C278.956+472.712+278.163+472.452+277.589+471.932C277.016+471.412+276.729+470.766+276.729+469.992Z" fill="#3b4252" opacity="1"/>
<path d="M296.049+490.112C296.049+489.579+295.823+489.152+295.369+488.832C294.916+488.512+294.356+488.219+293.689+487.952C293.023+487.686+292.289+487.412+291.489+487.132C290.689+486.852+289.956+486.466+289.289+485.972C288.623+485.479+288.063+484.852+287.609+484.092C287.156+483.332+286.929+482.352+286.929+481.152C286.929+479.179+287.516+477.672+288.689+476.632C289.863+475.592+291.556+475.072+293.769+475.072C295.289+475.072+296.663+475.232+297.889+475.552C299.116+475.872+300.076+476.232+300.769+476.632L299.609+480.392C298.996+480.152+298.223+479.899+297.289+479.632C296.356+479.366+295.409+479.232+294.449+479.232C292.903+479.232+292.129+479.832+292.129+481.032C292.129+481.512+292.356+481.899+292.809+482.192C293.263+482.486+293.823+482.759+294.489+483.012C295.156+483.266+295.889+483.539+296.689+483.832C297.489+484.126+298.223+484.506+298.889+484.972C299.556+485.439+300.116+486.046+300.569+486.792C301.023+487.539+301.249+488.499+301.249+489.672C301.249+491.699+300.603+493.292+299.309+494.452C298.016+495.612+296.076+496.192+293.489+496.192C292.076+496.192+290.749+496.012+289.509+495.652C288.269+495.292+287.263+494.872+286.489+494.392L287.929+490.512C288.543+490.859+289.356+491.199+290.369+491.532C291.383+491.866+292.423+492.032+293.489+492.032C294.263+492.032+294.883+491.886+295.349+491.592C295.816+491.299+296.049+490.806+296.049+490.112Z" opacity="1" fill="#3b4252"/>
<path opacity="1" fill="#3b4252" d="M302.569+475.632L305.329+475.632L305.329+471.872L310.529+470.392L310.529+475.632L315.409+475.632L315.409+480.032L310.529+480.032L310.529+487.712C310.529+489.099+310.669+490.092+310.949+490.692C311.229+491.292+311.756+491.592+312.529+491.592C313.063+491.592+313.523+491.539+313.909+491.432C314.296+491.326+314.729+491.166+315.209+490.952L316.129+494.952C315.409+495.299+314.569+495.592+313.609+495.832C312.649+496.072+311.676+496.192+310.689+496.192C308.849+496.192+307.496+495.719+306.629+494.772C305.763+493.826+305.329+492.272+305.329+490.112L305.329+480.032L302.569+480.032L302.569+475.632Z"/>
<path opacity="1" d="M334.609+493.912C333.809+494.552+332.723+495.092+331.349+495.532C329.976+495.972+328.516+496.192+326.969+496.192C323.743+496.192+321.383+495.252+319.889+493.372C318.396+491.492+317.649+488.912+317.649+485.632C317.649+482.112+318.489+479.472+320.169+477.712C321.849+475.952+324.209+475.072+327.249+475.072C328.263+475.072+329.249+475.206+330.209+475.472C331.169+475.739+332.023+476.179+332.769+476.792C333.516+477.406+334.116+478.232+334.569+479.272C335.023+480.312+335.249+481.606+335.249+483.152C335.249+483.712+335.216+484.312+335.149+484.952C335.083+485.592+334.983+486.259+334.849+486.952L322.849+486.952C322.929+488.632+323.363+489.899+324.149+490.752C324.936+491.606+326.209+492.032+327.969+492.032C329.063+492.032+330.043+491.866+330.909+491.532C331.776+491.199+332.436+490.859+332.889+490.512L334.609+493.912ZM327.169+479.232C325.809+479.232+324.803+479.639+324.149+480.452C323.496+481.266+323.103+482.352+322.969+483.712L330.409+483.712C330.516+482.272+330.296+481.166+329.749+480.392C329.203+479.619+328.343+479.232+327.169+479.232Z" fill="#3b4252"/>
<path opacity="1" d="M351.169+495.632L351.169+484.272C351.169+482.646+350.936+481.472+350.469+480.752C350.003+480.032+349.209+479.672+348.089+479.672C347.103+479.672+346.269+479.959+345.589+480.532C344.909+481.106+344.423+481.819+344.129+482.672L344.129+495.632L338.929+495.632L338.929+475.632L343.049+475.632L343.649+478.272L343.809+478.272C344.423+477.419+345.236+476.672+346.249+476.032C347.263+475.392+348.569+475.072+350.169+475.072C351.156+475.072+352.036+475.206+352.809+475.472C353.583+475.739+354.236+476.179+354.769+476.792C355.303+477.406+355.703+478.239+355.969+479.292C356.236+480.346+356.369+481.646+356.369+483.192L356.369+495.632L351.169+495.632Z" fill="#3b4252"/>
<path d="M368.769+475.632L371.529+475.632L371.529+471.872L376.729+470.392L376.729+475.632L381.609+475.632L381.609+480.032L376.729+480.032L376.729+487.712C376.729+489.099+376.869+490.092+377.149+490.692C377.429+491.292+377.956+491.592+378.729+491.592C379.263+491.592+379.723+491.539+380.109+491.432C380.496+491.326+380.929+491.166+381.409+490.952L382.329+494.952C381.609+495.299+380.769+495.592+379.809+495.832C378.849+496.072+377.876+496.192+376.889+496.192C375.049+496.192+373.696+495.719+372.829+494.772C371.963+493.826+371.529+492.272+371.529+490.112L371.529+480.032L368.769+480.032L368.769+475.632Z" opacity="1" fill="#3b4252"/>
<path fill="#3b4252" d="M383.849+485.632C383.849+482.246+384.676+479.639+386.329+477.812C387.983+475.986+390.303+475.072+393.289+475.072C394.889+475.072+396.276+475.326+397.449+475.832C398.623+476.339+399.596+477.052+400.369+477.972C401.143+478.892+401.723+480.006+402.109+481.312C402.496+482.619+402.689+484.059+402.689+485.632C402.689+489.019+401.869+491.626+400.229+493.452C398.589+495.279+396.276+496.192+393.289+496.192C391.689+496.192+390.303+495.939+389.129+495.432C387.956+494.926+386.976+494.212+386.189+493.292C385.403+492.372+384.816+491.259+384.429+489.952C384.043+488.646+383.849+487.206+383.849+485.632ZM389.209+485.632C389.209+486.512+389.289+487.326+389.449+488.072C389.609+488.819+389.849+489.472+390.169+490.032C390.489+490.592+390.909+491.026+391.429+491.332C391.949+491.639+392.569+491.792+393.289+491.792C394.649+491.792+395.663+491.299+396.329+490.312C396.996+489.326+397.329+487.766+397.329+485.632C397.329+483.792+397.023+482.306+396.409+481.172C395.796+480.039+394.756+479.472+393.289+479.472C392.009+479.472+391.009+479.952+390.289+480.912C389.569+481.872+389.209+483.446+389.209+485.632Z" opacity="1"/>
<path fill="#3b4252" opacity="1" d="M405.689+493.072C405.689+492.166+405.989+491.446+406.589+490.912C407.189+490.379+407.929+490.112+408.809+490.112C409.929+490.112+410.809+490.486+411.449+491.232C412.089+491.979+412.409+492.966+412.409+494.192C412.409+495.392+412.223+496.426+411.849+497.292C411.476+498.159+411.016+498.879+410.469+499.452C409.923+500.026+409.336+500.479+408.709+500.812C408.083+501.146+407.516+501.392+407.009+501.552L405.489+499.392C406.209+499.099+406.836+498.619+407.369+497.952C407.903+497.286+408.196+496.579+408.249+495.832C407.636+495.912+407.056+495.726+406.509+495.272C405.963+494.819+405.689+494.086+405.689+493.072Z"/>
</g>
<g opacity="1">
<path d="M61.475+602.096L62.195+605.216L62.435+605.216L62.955+602.056L65.995+590.856L71.355+590.856L65.275+608.896C64.7683+610.389+64.2817+611.756+63.815+612.996C63.3483+614.236+62.835+615.309+62.275+616.216C61.715+617.123+61.095+617.823+60.415+618.316C59.735+618.809+58.9283+619.056+57.995+619.056C56.6083+619.056+55.5017+618.829+54.675+618.376L55.635+614.216C56.035+614.376+56.435+614.456+56.835+614.456C57.4483+614.456+58.0417+614.196+58.615+613.676C59.1883+613.156+59.6217+612.216+59.915+610.856L51.555+590.856L57.795+590.856L61.475+602.096Z" opacity="1" fill="#3b4252"/>
<path opacity="1" d="M72.355+600.856C72.355+597.469+73.1817+594.863+74.835+593.036C76.4883+591.209+78.8083+590.296+81.795+590.296C83.395+590.296+84.7817+590.549+85.955+591.056C87.1283+591.563+88.1017+592.276+88.875+593.196C89.6483+594.116+90.2283+595.229+90.615+596.536C91.0017+597.843+91.195+599.283+91.195+600.856C91.195+604.243+90.375+606.849+88.735+608.676C87.095+610.503+84.7817+611.416+81.795+611.416C80.195+611.416+78.8083+611.163+77.635+610.656C76.4617+610.149+75.4817+609.436+74.695+608.516C73.9083+607.596+73.3217+606.483+72.935+605.176C72.5483+603.869+72.355+602.429+72.355+600.856ZM77.715+600.856C77.715+601.736+77.795+602.549+77.955+603.296C78.115+604.043+78.355+604.696+78.675+605.256C78.995+605.816+79.415+606.249+79.935+606.556C80.455+606.863+81.075+607.016+81.795+607.016C83.155+607.016+84.1683+606.523+84.835+605.536C85.5017+604.549+85.835+602.989+85.835+600.856C85.835+599.016+85.5283+597.529+84.915+596.396C84.3017+595.263+83.2617+594.696+81.795+594.696C80.515+594.696+79.515+595.176+78.795+596.136C78.075+597.096+77.715+598.669+77.715+600.856Z" fill="#3b4252"/>
<path fill="#3b4252" opacity="1" d="M99.795+590.856L99.795+602.216C99.795+603.843+99.9883+605.016+100.375+605.736C100.762+606.456+101.515+606.816+102.635+606.816C103.622+606.816+104.442+606.523+105.095+605.936C105.748+605.349+106.235+604.629+106.555+603.776L106.555+590.856L111.755+590.856L111.755+604.776C111.755+605.869+111.808+606.943+111.915+607.996C112.022+609.049+112.182+610.003+112.395+610.856L108.475+610.856L107.555+607.896L107.395+607.896C106.782+608.909+105.928+609.749+104.835+610.416C103.742+611.083+102.448+611.416+100.955+611.416C99.9417+611.416+99.035+611.283+98.235+611.016C97.435+610.749+96.7683+610.309+96.235+609.696C95.7017+609.083+95.295+608.256+95.015+607.216C94.735+606.176+94.595+604.869+94.595+603.296L94.595+590.856L99.795+590.856Z"/>
<path fill="#3b4252" opacity="1" d="M115.555+585.096C115.555+584.323+115.815+583.696+116.335+583.216C116.855+582.736+117.515+582.496+118.315+582.496C119.275+582.496+120.035+582.816+120.595+583.456C121.155+584.096+121.435+584.936+121.435+585.976C121.435+587.043+121.268+587.949+120.935+588.696C120.602+589.443+120.202+590.063+119.735+590.556C119.268+591.049+118.775+591.436+118.255+591.716C117.735+591.996+117.302+592.203+116.955+592.336L115.635+590.136C116.168+589.896+116.642+589.576+117.055+589.176C117.468+588.776+117.702+588.269+117.755+587.656C117.222+587.683+116.722+587.476+116.255+587.036C115.788+586.596+115.555+585.949+115.555+585.096Z"/>
<path fill="#3b4252" d="M132.155+601.336L132.835+604.416L133.035+604.416L133.595+601.256L136.995+590.856L142.595+590.856L134.235+611.056L131.075+611.056L122.395+590.856L128.435+590.856L132.155+601.336Z" opacity="1"/>
<path opacity="1" fill="#3b4252" d="M160.315+609.136C159.515+609.776+158.428+610.316+157.055+610.756C155.682+611.196+154.222+611.416+152.675+611.416C149.448+611.416+147.088+610.476+145.595+608.596C144.102+606.716+143.355+604.136+143.355+600.856C143.355+597.336+144.195+594.696+145.875+592.936C147.555+591.176+149.915+590.296+152.955+590.296C153.968+590.296+154.955+590.429+155.915+590.696C156.875+590.963+157.728+591.403+158.475+592.016C159.222+592.629+159.822+593.456+160.275+594.496C160.728+595.536+160.955+596.829+160.955+598.376C160.955+598.936+160.922+599.536+160.855+600.176C160.788+600.816+160.688+601.483+160.555+602.176L148.555+602.176C148.635+603.856+149.068+605.123+149.855+605.976C150.642+606.829+151.915+607.256+153.675+607.256C154.768+607.256+155.748+607.089+156.615+606.756C157.482+606.423+158.142+606.083+158.595+605.736L160.315+609.136ZM152.875+594.456C151.515+594.456+150.508+594.863+149.855+595.676C149.202+596.489+148.808+597.576+148.675+598.936L156.115+598.936C156.222+597.496+156.002+596.389+155.455+595.616C154.908+594.843+154.048+594.456+152.875+594.456Z"/>
<path fill="#3b4252" d="M180.115+604.136C180.115+605.069+180.235+605.749+180.475+606.176C180.715+606.603+181.102+606.816+181.635+606.816C181.955+606.816+182.268+606.789+182.575+606.736C182.882+606.683+183.262+606.563+183.715+606.376L184.275+610.456C183.848+610.669+183.195+610.883+182.315+611.096C181.435+611.309+180.528+611.416+179.595+611.416C178.075+611.416+176.915+611.063+176.115+610.356C175.315+609.649+174.915+608.483+174.915+606.856L174.915+582.856L180.115+582.856L180.115+604.136Z" opacity="1"/>
<path opacity="1" fill="#3b4252" d="M186.995+590.856L192.195+590.856L192.195+610.856L186.995+610.856L186.995+590.856ZM186.235+585.216C186.235+584.443+186.522+583.783+187.095+583.236C187.668+582.689+188.462+582.416+189.475+582.416C190.488+582.416+191.308+582.689+191.935+583.236C192.562+583.783+192.875+584.443+192.875+585.216C192.875+585.989+192.562+586.636+191.935+587.156C191.308+587.676+190.488+587.936+189.475+587.936C188.462+587.936+187.668+587.676+187.095+587.156C186.522+586.636+186.235+585.989+186.235+585.216Z"/>
<path opacity="1" fill="#3b4252" d="M205.555+605.336C205.555+604.803+205.328+604.376+204.875+604.056C204.422+603.736+203.862+603.443+203.195+603.176C202.528+602.909+201.795+602.636+200.995+602.356C200.195+602.076+199.462+601.689+198.795+601.196C198.128+600.703+197.568+600.076+197.115+599.316C196.662+598.556+196.435+597.576+196.435+596.376C196.435+594.403+197.022+592.896+198.195+591.856C199.368+590.816+201.062+590.296+203.275+590.296C204.795+590.296+206.168+590.456+207.395+590.776C208.622+591.096+209.582+591.456+210.275+591.856L209.115+595.616C208.502+595.376+207.728+595.123+206.795+594.856C205.862+594.589+204.915+594.456+203.955+594.456C202.408+594.456+201.635+595.056+201.635+596.256C201.635+596.736+201.862+597.123+202.315+597.416C202.768+597.709+203.328+597.983+203.995+598.236C204.662+598.489+205.395+598.763+206.195+599.056C206.995+599.349+207.728+599.729+208.395+600.196C209.062+600.663+209.622+601.269+210.075+602.016C210.528+602.763+210.755+603.723+210.755+604.896C210.755+606.923+210.108+608.516+208.815+609.676C207.522+610.836+205.582+611.416+202.995+611.416C201.582+611.416+200.255+611.236+199.015+610.876C197.775+610.516+196.768+610.096+195.995+609.616L197.435+605.736C198.048+606.083+198.862+606.423+199.875+606.756C200.888+607.089+201.928+607.256+202.995+607.256C203.768+607.256+204.388+607.109+204.855+606.816C205.322+606.523+205.555+606.029+205.555+605.336Z"/>
<path d="M212.075+590.856L214.835+590.856L214.835+587.096L220.035+585.616L220.035+590.856L224.915+590.856L224.915+595.256L220.035+595.256L220.035+602.936C220.035+604.323+220.175+605.316+220.455+605.916C220.735+606.516+221.262+606.816+222.035+606.816C222.568+606.816+223.028+606.763+223.415+606.656C223.802+606.549+224.235+606.389+224.715+606.176L225.635+610.176C224.915+610.523+224.075+610.816+223.115+611.056C222.155+611.296+221.182+611.416+220.195+611.416C218.355+611.416+217.002+610.943+216.135+609.996C215.268+609.049+214.835+607.496+214.835+605.336L214.835+595.256L212.075+595.256L212.075+590.856Z" opacity="1" fill="#3b4252"/>
<path d="M244.115+609.136C243.315+609.776+242.228+610.316+240.855+610.756C239.482+611.196+238.022+611.416+236.475+611.416C233.248+611.416+230.888+610.476+229.395+608.596C227.902+606.716+227.155+604.136+227.155+600.856C227.155+597.336+227.995+594.696+229.675+592.936C231.355+591.176+233.715+590.296+236.755+590.296C237.768+590.296+238.755+590.429+239.715+590.696C240.675+590.963+241.528+591.403+242.275+592.016C243.022+592.629+243.622+593.456+244.075+594.496C244.528+595.536+244.755+596.829+244.755+598.376C244.755+598.936+244.722+599.536+244.655+600.176C244.588+600.816+244.488+601.483+244.355+602.176L232.355+602.176C232.435+603.856+232.868+605.123+233.655+605.976C234.442+606.829+235.715+607.256+237.475+607.256C238.568+607.256+239.548+607.089+240.415+606.756C241.282+606.423+241.942+606.083+242.395+605.736L244.115+609.136ZM236.675+594.456C235.315+594.456+234.308+594.863+233.655+595.676C233.002+596.489+232.608+597.576+232.475+598.936L239.915+598.936C240.022+597.496+239.802+596.389+239.255+595.616C238.708+594.843+237.848+594.456+236.675+594.456Z" fill="#3b4252" opacity="1"/>
<path fill="#3b4252" opacity="1" d="M260.675+610.856L260.675+599.496C260.675+597.869+260.442+596.696+259.975+595.976C259.508+595.256+258.715+594.896+257.595+594.896C256.608+594.896+255.775+595.183+255.095+595.756C254.415+596.329+253.928+597.043+253.635+597.896L253.635+610.856L248.435+610.856L248.435+590.856L252.555+590.856L253.155+593.496L253.315+593.496C253.928+592.643+254.742+591.896+255.755+591.256C256.768+590.616+258.075+590.296+259.675+590.296C260.662+590.296+261.542+590.429+262.315+590.696C263.088+590.963+263.742+591.403+264.275+592.016C264.808+592.629+265.208+593.463+265.475+594.516C265.742+595.569+265.875+596.869+265.875+598.416L265.875+610.856L260.675+610.856Z"/>
<path d="M286.235+609.136C285.435+609.776+284.348+610.316+282.975+610.756C281.602+611.196+280.142+611.416+278.595+611.416C275.368+611.416+273.008+610.476+271.515+608.596C270.022+606.716+269.275+604.136+269.275+600.856C269.275+597.336+270.115+594.696+271.795+592.936C273.475+591.176+275.835+590.296+278.875+590.296C279.888+590.296+280.875+590.429+281.835+590.696C282.795+590.963+283.648+591.403+284.395+592.016C285.142+592.629+285.742+593.456+286.195+594.496C286.648+595.536+286.875+596.829+286.875+598.376C286.875+598.936+286.842+599.536+286.775+600.176C286.708+600.816+286.608+601.483+286.475+602.176L274.475+602.176C274.555+603.856+274.988+605.123+275.775+605.976C276.562+606.829+277.835+607.256+279.595+607.256C280.688+607.256+281.668+607.089+282.535+606.756C283.402+606.423+284.062+606.083+284.515+605.736L286.235+609.136ZM278.795+594.456C277.435+594.456+276.428+594.863+275.775+595.676C275.122+596.489+274.728+597.576+274.595+598.936L282.035+598.936C282.142+597.496+281.922+596.389+281.375+595.616C280.828+594.843+279.968+594.456+278.795+594.456Z" opacity="1" fill="#3b4252"/>
<path fill="#3b4252" d="M307.555+603.816C307.555+604.936+307.568+606.056+307.595+607.176C307.622+608.296+307.742+609.536+307.955+610.896L304.235+610.896L303.515+608.296L303.355+608.296C302.822+609.229+302.055+609.983+301.055+610.556C300.055+611.129+298.875+611.416+297.515+611.416C295.008+611.416+293.062+610.589+291.675+608.936C290.288+607.283+289.595+604.696+289.595+601.176C289.595+597.763+290.368+595.109+291.915+593.216C293.462+591.323+295.728+590.376+298.715+590.376C299.542+590.376+300.222+590.423+300.755+590.516C301.288+590.609+301.822+590.763+302.355+590.976L302.355+582.856L307.555+582.856L307.555+603.816ZM298.715+607.016C299.728+607.016+300.528+606.769+301.115+606.276C301.702+605.783+302.115+605.069+302.355+604.136L302.355+595.656C301.982+595.363+301.568+595.143+301.115+594.996C300.662+594.849+300.075+594.776+299.355+594.776C297.888+594.776+296.788+595.269+296.055+596.256C295.322+597.243+294.955+598.936+294.955+601.336C294.955+603.043+295.255+604.416+295.855+605.456C296.455+606.496+297.408+607.016+298.715+607.016Z" opacity="1"/>
<path opacity="1" d="M320.155+590.856L322.915+590.856L322.915+587.096L328.115+585.616L328.115+590.856L332.995+590.856L332.995+595.256L328.115+595.256L328.115+602.936C328.115+604.323+328.255+605.316+328.535+605.916C328.815+606.516+329.342+606.816+330.115+606.816C330.648+606.816+331.108+606.763+331.495+606.656C331.882+606.549+332.315+606.389+332.795+606.176L333.715+610.176C332.995+610.523+332.155+610.816+331.195+611.056C330.235+611.296+329.262+611.416+328.275+611.416C326.435+611.416+325.082+610.943+324.215+609.996C323.348+609.049+322.915+607.496+322.915+605.336L322.915+595.256L320.155+595.256L320.155+590.856Z" fill="#3b4252"/>
<path d="M335.235+600.856C335.235+597.469+336.062+594.863+337.715+593.036C339.368+591.209+341.688+590.296+344.675+590.296C346.275+590.296+347.662+590.549+348.835+591.056C350.008+591.563+350.982+592.276+351.755+593.196C352.528+594.116+353.108+595.229+353.495+596.536C353.882+597.843+354.075+599.283+354.075+600.856C354.075+604.243+353.255+606.849+351.615+608.676C349.975+610.503+347.662+611.416+344.675+611.416C343.075+611.416+341.688+611.163+340.515+610.656C339.342+610.149+338.362+609.436+337.575+608.516C336.788+607.596+336.202+606.483+335.815+605.176C335.428+603.869+335.235+602.429+335.235+600.856ZM340.595+600.856C340.595+601.736+340.675+602.549+340.835+603.296C340.995+604.043+341.235+604.696+341.555+605.256C341.875+605.816+342.295+606.249+342.815+606.556C343.335+606.863+343.955+607.016+344.675+607.016C346.035+607.016+347.048+606.523+347.715+605.536C348.382+604.549+348.715+602.989+348.715+600.856C348.715+599.016+348.408+597.529+347.795+596.396C347.182+595.263+346.142+594.696+344.675+594.696C343.395+594.696+342.395+595.176+341.675+596.136C340.955+597.096+340.595+598.669+340.595+600.856Z" opacity="1" fill="#3b4252"/>
</g>
<path d="M63.5798+759.045L426.207+759.045C429.681+759.045+432.497+761.861+432.497+765.335L432.497+816.712C432.497+820.185+429.681+823.002+426.207+823.002L63.5798+823.002C60.1059+823.002+57.2897+820.185+57.2897+816.712L57.2897+765.335C57.2897+761.861+60.1059+759.045+63.5798+759.045Z" opacity="1" fill="none" stroke="#000000" stroke-width="3.82118" stroke-linejoin="round" stroke-linecap="round"/>
<path opacity="1" stroke-linecap="round" stroke-width="3.82118" fill="none" d="M63.34+670.897L425.967+670.897C429.441+670.897+432.257+673.713+432.257+677.187L432.257+728.563C432.257+732.037+429.441+734.854+425.967+734.854L63.34+734.854C59.8661+734.854+57.0499+732.037+57.0499+728.563L57.0499+677.187C57.0499+673.713+59.8661+670.897+63.34+670.897Z" stroke-linejoin="round" stroke="#000000"/>
<g opacity="1">
<path opacity="1" fill="#000000" d="M170.691+774.283C171.654+774.105+172.762+773.966+174.016+773.865C175.27+773.763+176.417+773.713+177.455+773.713C178.621+773.713+179.729+773.839+180.78+774.093C181.832+774.346+182.756+774.764+183.554+775.347C184.352+775.929+184.992+776.689+185.473+777.627C185.955+778.564+186.195+779.704+186.195+781.047C186.195+783.124+185.625+784.809+184.485+786.101C183.345+787.393+181.901+788.254+180.153+788.685L181.977+790.091L188.589+800.617L184.903+800.617L177.569+789.141L173.845+788.571L173.845+800.617L170.691+800.617L170.691+774.283ZM177.531+776.449C177.202+776.449+176.86+776.449+176.505+776.449C176.151+776.449+175.809+776.461+175.479+776.487C175.15+776.512+174.84+776.537+174.548+776.563C174.257+776.588+174.023+776.626+173.845+776.677L173.845+786.481L176.809+786.481C178.557+786.481+180.001+786.05+181.141+785.189C182.281+784.327+182.851+782.985+182.851+781.161C182.851+779.793+182.383+778.665+181.445+777.779C180.508+776.892+179.203+776.449+177.531+776.449Z"/>
<path d="M206.867+799.097C206.107+799.705+205.151+800.186+203.998+800.541C202.846+800.895+201.623+801.073+200.331+801.073C198.887+801.073+197.633+800.838+196.569+800.37C195.505+799.901+194.631+799.23+193.947+798.356C193.263+797.482+192.757+796.437+192.427+795.221C192.098+794.005+191.933+792.637+191.933+791.117C191.933+787.874+192.655+785.404+194.099+783.707C195.543+782.009+197.608+781.161+200.293+781.161C201.155+781.161+202.016+781.256+202.877+781.446C203.739+781.636+204.511+781.997+205.195+782.529C205.879+783.061+206.437+783.814+206.867+784.79C207.298+785.765+207.513+787.051+207.513+788.647C207.513+789.483+207.437+790.407+207.285+791.421L195.087+791.421C195.087+792.535+195.201+793.523+195.429+794.385C195.657+795.246+196.012+795.974+196.493+796.57C196.975+797.165+197.602+797.621+198.374+797.938C199.147+798.254+200.091+798.413+201.205+798.413C202.067+798.413+202.928+798.261+203.789+797.957C204.651+797.653+205.297+797.298+205.727+796.893L206.867+799.097ZM200.331+783.821C198.837+783.821+197.64+784.213+196.74+784.999C195.841+785.784+195.303+787.127+195.125+789.027L204.549+789.027C204.549+787.101+204.182+785.752+203.447+784.98C202.713+784.207+201.674+783.821+200.331+783.821Z" opacity="1" fill="#000000"/>
<path d="M226.855+801.491C226.855+803.948+226.203+805.759+224.898+806.925C223.594+808.09+221.662+808.673+219.103+808.673C217.583+808.673+216.361+808.578+215.436+808.388C214.512+808.198+213.72+807.951+213.061+807.647L213.859+805.063C214.442+805.291+215.088+805.506+215.797+805.709C216.507+805.911+217.431+806.013+218.571+806.013C219.635+806.013+220.503+805.918+221.174+805.728C221.846+805.538+222.384+805.221+222.789+804.778C223.195+804.334+223.473+803.764+223.625+803.068C223.777+802.371+223.853+801.541+223.853+800.579L223.853+798.755L223.701+798.755C223.195+799.489+222.549+800.053+221.763+800.446C220.978+800.838+219.952+801.035+218.685+801.035C216.127+801.035+214.246+800.237+213.042+798.641C211.839+797.045+211.237+794.562+211.237+791.193C211.237+787.95+212.01+785.486+213.555+783.802C215.101+782.117+217.381+781.275+220.395+781.275C221.839+781.275+223.074+781.389+224.1+781.617C225.126+781.845+226.045+782.111+226.855+782.415L226.855+801.491ZM219.217+798.375C220.509+798.375+221.523+798.052+222.257+797.406C222.992+796.76+223.511+795.753+223.815+794.385L223.815+784.657C222.802+784.175+221.51+783.935+219.939+783.935C218.217+783.935+216.861+784.517+215.873+785.683C214.885+786.848+214.391+788.672+214.391+791.155C214.391+792.219+214.48+793.194+214.657+794.081C214.835+794.967+215.113+795.727+215.493+796.361C215.873+796.994+216.367+797.488+216.975+797.843C217.583+798.197+218.331+798.375+219.217+798.375Z" opacity="1" fill="#000000"/>
<path d="M233.353+781.617L236.393+781.617L236.393+800.617L233.353+800.617L233.353+781.617ZM232.707+775.841C232.707+775.258+232.904+774.758+233.296+774.34C233.689+773.922+234.189+773.713+234.797+773.713C235.405+773.713+235.925+773.922+236.355+774.34C236.786+774.758+237.001+775.258+237.001+775.841C237.001+776.423+236.786+776.905+236.355+777.285C235.925+777.665+235.405+777.855+234.797+777.855C234.189+777.855+233.689+777.665+233.296+777.285C232.904+776.905+232.707+776.423+232.707+775.841Z" opacity="1" fill="#000000"/>
<path opacity="1" fill="#000000" d="M251.251+795.449C251.251+794.689+251.023+794.093+250.567+793.663C250.111+793.232+249.548+792.871+248.876+792.58C248.205+792.288+247.47+792.01+246.672+791.744C245.874+791.478+245.14+791.136+244.468+790.718C243.797+790.3+243.233+789.761+242.777+789.103C242.321+788.444+242.093+787.557+242.093+786.443C242.093+784.619+242.613+783.282+243.651+782.434C244.69+781.585+246.134+781.161+247.983+781.161C249.351+781.161+250.498+781.281+251.422+781.522C252.347+781.762+253.151+782.047+253.835+782.377L253.113+784.885C252.531+784.606+251.828+784.359+251.004+784.144C250.181+783.928+249.301+783.821+248.363+783.821C247.249+783.821+246.432+784.011+245.912+784.391C245.393+784.771+245.133+785.429+245.133+786.367C245.133+787.025+245.361+787.538+245.817+787.906C246.273+788.273+246.837+788.602+247.508+788.894C248.18+789.185+248.914+789.47+249.712+789.749C250.51+790.027+251.245+790.395+251.916+790.851C252.588+791.307+253.151+791.883+253.607+792.58C254.063+793.276+254.291+794.195+254.291+795.335C254.291+796.145+254.158+796.905+253.892+797.615C253.626+798.324+253.215+798.932+252.657+799.439C252.1+799.945+251.41+800.344+250.586+800.636C249.763+800.927+248.794+801.073+247.679+801.073C246.235+801.073+245.007+800.933+243.993+800.655C242.98+800.376+242.131+800.047+241.447+799.667L242.359+797.083C242.942+797.412+243.702+797.716+244.639+797.995C245.577+798.273+246.527+798.413+247.489+798.413C248.579+798.413+249.478+798.197+250.187+797.767C250.897+797.336+251.251+796.563+251.251+795.449Z"/>
<path opacity="1" d="M256.381+781.617L259.345+781.617L259.345+777.855L262.385+776.981L262.385+781.617L267.553+781.617L267.553+784.277L262.385+784.277L262.385+794.803C262.385+796.12+262.55+797.051+262.879+797.596C263.209+798.14+263.766+798.413+264.551+798.413C265.21+798.413+265.767+798.343+266.223+798.204C266.679+798.064+267.186+797.881+267.743+797.653L268.427+799.971C267.743+800.3+266.996+800.566+266.185+800.769C265.375+800.971+264.501+801.073+263.563+801.073C262.018+801.073+260.929+800.636+260.295+799.762C259.662+798.888+259.345+797.425+259.345+795.373L259.345+784.277L256.381+784.277L256.381+781.617Z" fill="#000000"/>
<path fill="#000000" opacity="1" d="M285.641+799.097C284.881+799.705+283.925+800.186+282.772+800.541C281.62+800.895+280.397+801.073+279.105+801.073C277.661+801.073+276.407+800.838+275.343+800.37C274.279+799.901+273.405+799.23+272.721+798.356C272.037+797.482+271.531+796.437+271.201+795.221C270.872+794.005+270.707+792.637+270.707+791.117C270.707+787.874+271.429+785.404+272.873+783.707C274.317+782.009+276.382+781.161+279.067+781.161C279.929+781.161+280.79+781.256+281.651+781.446C282.513+781.636+283.285+781.997+283.969+782.529C284.653+783.061+285.211+783.814+285.641+784.79C286.072+785.765+286.287+787.051+286.287+788.647C286.287+789.483+286.211+790.407+286.059+791.421L273.861+791.421C273.861+792.535+273.975+793.523+274.203+794.385C274.431+795.246+274.786+795.974+275.267+796.57C275.749+797.165+276.376+797.621+277.148+797.938C277.921+798.254+278.865+798.413+279.979+798.413C280.841+798.413+281.702+798.261+282.563+797.957C283.425+797.653+284.071+797.298+284.501+796.893L285.641+799.097ZM279.105+783.821C277.611+783.821+276.414+784.213+275.514+784.999C274.615+785.784+274.077+787.127+273.899+789.027L283.323+789.027C283.323+787.101+282.956+785.752+282.221+784.98C281.487+784.207+280.448+783.821+279.105+783.821Z"/>
<path opacity="1" d="M300.043+784.543C299.283+784.289+298.561+784.163+297.877+784.163C296.788+784.163+295.927+784.46+295.293+785.056C294.66+785.651+294.267+786.405+294.115+787.317L294.115+800.617L291.075+800.617L291.075+781.617L293.203+781.617L293.773+783.935L293.925+783.935C294.407+783.073+294.983+782.408+295.654+781.94C296.326+781.471+297.181+781.237+298.219+781.237C298.954+781.237+299.777+781.363+300.689+781.617L300.043+784.543Z" fill="#000000"/>
</g>
<g opacity="1">
<path fill="#000000" d="M208.672+715.925L192.94+715.925L192.94+689.325L196.094+689.325L196.094+713.113L208.672+713.113L208.672+715.925Z" opacity="1"/>
<path d="M211.218+706.425C211.218+703.208+211.934+700.744+213.365+699.034C214.797+697.324+216.855+696.469+219.54+696.469C220.959+696.469+222.194+696.704+223.245+697.172C224.297+697.641+225.164+698.312+225.848+699.186C226.532+700.06+227.039+701.112+227.368+702.34C227.698+703.569+227.862+704.931+227.862+706.425C227.862+709.643+227.147+712.106+225.715+713.816C224.284+715.526+222.226+716.381+219.54+716.381C218.122+716.381+216.887+716.147+215.835+715.678C214.784+715.21+213.916+714.538+213.232+713.664C212.548+712.79+212.042+711.739+211.712+710.51C211.383+709.282+211.218+707.92+211.218+706.425ZM214.372+706.425C214.372+707.388+214.467+708.313+214.657+709.199C214.847+710.086+215.145+710.859+215.55+711.517C215.956+712.176+216.488+712.708+217.146+713.113C217.805+713.519+218.603+713.721+219.54+713.721C222.986+713.747+224.708+711.315+224.708+706.425C224.708+705.437+224.613+704.5+224.423+703.613C224.233+702.727+223.936+701.954+223.53+701.295C223.125+700.637+222.593+700.111+221.934+699.718C221.276+699.326+220.478+699.129+219.54+699.129C216.095+699.104+214.372+701.536+214.372+706.425Z" fill="#000000" opacity="1"/>
<path fill="#000000" opacity="1" d="M247.204+716.799C247.204+719.257+246.552+721.068+245.247+722.233C243.943+723.399+242.011+723.981+239.452+723.981C237.932+723.981+236.71+723.886+235.785+723.696C234.861+723.506+234.069+723.259+233.41+722.955L234.208+720.371C234.791+720.599+235.437+720.815+236.146+721.017C236.856+721.22+237.78+721.321+238.92+721.321C239.984+721.321+240.852+721.226+241.523+721.036C242.195+720.846+242.733+720.53+243.138+720.086C243.544+719.643+243.822+719.073+243.974+718.376C244.126+717.68+244.202+716.85+244.202+715.887L244.202+714.063L244.05+714.063C243.544+714.798+242.898+715.362+242.112+715.754C241.327+716.147+240.301+716.343+239.034+716.343C236.476+716.343+234.595+715.545+233.391+713.949C232.188+712.353+231.586+709.871+231.586+706.501C231.586+703.259+232.359+700.795+233.904+699.11C235.45+697.426+237.73+696.583+240.744+696.583C242.188+696.583+243.423+696.697+244.449+696.925C245.475+697.153+246.394+697.419+247.204+697.723L247.204+716.799ZM239.566+713.683C240.858+713.683+241.872+713.36+242.606+712.714C243.341+712.068+243.86+711.061+244.164+709.693L244.164+699.965C243.151+699.484+241.859+699.243+240.288+699.243C238.566+699.243+237.21+699.826+236.222+700.991C235.234+702.157+234.74+703.981+234.74+706.463C234.74+707.527+234.829+708.503+235.006+709.389C235.184+710.276+235.462+711.036+235.842+711.669C236.222+712.303+236.716+712.797+237.324+713.151C237.932+713.506+238.68+713.683+239.566+713.683Z"/>
<path d="M253.702+696.925L256.742+696.925L256.742+715.925L253.702+715.925L253.702+696.925ZM253.056+691.149C253.056+690.567+253.253+690.066+253.645+689.648C254.038+689.23+254.538+689.021+255.146+689.021C255.754+689.021+256.274+689.23+256.704+689.648C257.135+690.066+257.35+690.567+257.35+691.149C257.35+691.732+257.135+692.213+256.704+692.593C256.274+692.973+255.754+693.163+255.146+693.163C254.538+693.163+254.038+692.973+253.645+692.593C253.253+692.213+253.056+691.732+253.056+691.149Z" opacity="1" fill="#000000"/>
<path opacity="1" d="M275.438+715.925L275.438+705.095C275.438+703.119+275.153+701.631+274.583+700.63C274.013+699.63+272.968+699.129+271.448+699.129C270.106+699.129+268.997+699.49+268.123+700.212C267.249+700.934+266.635+701.84+266.28+702.929L266.28+715.925L263.24+715.925L263.24+696.925L265.368+696.925L265.938+699.243L266.09+699.243C266.698+698.433+267.515+697.768+268.541+697.248C269.567+696.729+270.79+696.469+272.208+696.469C273.247+696.469+274.159+696.59+274.944+696.83C275.73+697.071+276.382+697.495+276.901+698.103C277.421+698.711+277.813+699.528+278.079+700.554C278.345+701.58+278.478+702.879+278.478+704.449L278.478+715.925L275.438+715.925Z" fill="#000000"/>
</g>
<path fill="#000000" stroke="#000000" d="M1838.81+116.699C1837.41+116.652+1832.95+117.254+1831.33+116.836C1831.33+116.836+1827.6+114.843+1827.59+114.838C1822.3+112.435+1815.88+108.527+1812.31+104.072C1810.05+101.242+1809.46+96.5645+1808.66+93.1423C1808.33+91.7235+1807.53+89.9+1807.7+88.4119C1807.89+86.7535+1809.12+85.4976+1809.85+84.016C1812.37+78.9175+1816.05+73.7954+1819.35+69.0373C1820.52+67.3485+1822.86+65.2323+1824.68+64.0757C1825.14+63.7854+1827.12+62.1377+1827.09+62.1367C1825.76+62.0923+1822.64+62.9895+1821.51+63.5509C1812.97+67.7906+1803.93+71.304+1798.5+79.3406C1796.19+82.7569+1793.59+85.3967+1793.31+89.5419C1793.07+93.1249+1794.65+97.0434+1795.45+100.49C1796.05+103.092+1796.25+106.345+1797.37+108.765C1800.36+115.173+1812.54+119.06+1819.17+120.764C1820.73+121.164+1822.1+121.885+1823.81+121.837C1827.67+121.728+1832.58+119.617+1836.39+118.652C1837.51+118.367+1839.46+118.22+1840.43+117.629C1840.94+117.318+1842.66+116.938+1842.07+116.896C1840.99+116.817+1839.9+116.735+1838.81+116.699Z" stroke-linejoin="round" opacity="1" stroke-width="3.82118" stroke-linecap="round"/>
<g opacity="1">
<path fill="#3b4252" d="M57.2287+541.865C57.2287+538.478+58.0553+535.872+59.7087+534.045C61.362+532.218+63.682+531.305+66.6687+531.305C68.2687+531.305+69.6553+531.558+70.8287+532.065C72.002+532.572+72.9753+533.285+73.7487+534.205C74.522+535.125+75.102+536.238+75.4887+537.545C75.8753+538.852+76.0687+540.292+76.0687+541.865C76.0687+545.252+75.2487+547.858+73.6087+549.685C71.9687+551.512+69.6553+552.425+66.6687+552.425C65.0687+552.425+63.682+552.172+62.5087+551.665C61.3353+551.158+60.3553+550.445+59.5687+549.525C58.782+548.605+58.1953+547.492+57.8087+546.185C57.422+544.878+57.2287+543.438+57.2287+541.865ZM62.5887+541.865C62.5887+542.745+62.6687+543.558+62.8287+544.305C62.9887+545.052+63.2287+545.705+63.5487+546.265C63.8687+546.825+64.2887+547.258+64.8087+547.565C65.3287+547.872+65.9487+548.025+66.6687+548.025C68.0287+548.025+69.042+547.532+69.7087+546.545C70.3753+545.558+70.7087+543.998+70.7087+541.865C70.7087+540.025+70.402+538.538+69.7887+537.405C69.1753+536.272+68.1353+535.705+66.6687+535.705C65.3887+535.705+64.3887+536.185+63.6687+537.145C62.9487+538.105+62.5887+539.678+62.5887+541.865Z" opacity="1"/>
<path opacity="1" fill="#3b4252" d="M90.7087+536.745C89.882+536.452+89.1353+536.305+88.4687+536.305C87.5353+536.305+86.7553+536.552+86.1287+537.045C85.502+537.538+85.082+538.172+84.8687+538.945L84.8687+551.865L79.6687+551.865L79.6687+531.865L83.7087+531.865L84.3087+534.505L84.4687+534.505C84.922+533.518+85.5353+532.758+86.3087+532.225C87.082+531.692+87.9887+531.425+89.0287+531.425C89.722+531.425+90.5087+531.572+91.3887+531.865L90.7087+536.745Z"/>
</g>
<g opacity="1">
<path d="M163.369+136.444C164.222+136.06+165.236+135.756+166.409+135.532C167.582+135.308+168.809+135.196+170.089+135.196C171.198+135.196+172.126+135.329+172.873+135.596C173.62+135.863+174.212+136.241+174.649+136.732C175.086+137.223+175.396+137.809+175.577+138.492C175.758+139.175+175.849+139.943+175.849+140.796C175.849+141.735+175.817+142.679+175.753+143.628C175.689+144.577+175.652+145.511+175.641+146.428C175.63+147.345+175.657+148.236+175.721+149.1C175.785+149.964+175.945+150.78+176.201+151.548L172.809+151.548L172.137+149.34L171.977+149.34C171.55+150.001+170.958+150.572+170.201+151.052C169.444+151.532+168.468+151.772+167.273+151.772C166.526+151.772+165.854+151.66+165.257+151.436C164.66+151.212+164.148+150.892+163.721+150.476C163.294+150.06+162.964+149.569+162.729+149.004C162.494+148.439+162.377+147.804+162.377+147.1C162.377+146.119+162.596+145.292+163.033+144.62C163.47+143.948+164.1+143.404+164.921+142.988C165.742+142.572+166.724+142.284+167.865+142.124C169.006+141.964+170.281+141.916+171.689+141.98C171.838+140.785+171.753+139.927+171.433+139.404C171.113+138.881+170.398+138.62+169.289+138.62C168.457+138.62+167.577+138.705+166.649+138.876C165.721+139.047+164.958+139.271+164.361+139.548L163.369+136.444ZM168.649+148.348C169.481+148.348+170.142+148.161+170.633+147.788C171.124+147.415+171.486+147.015+171.721+146.588L171.721+144.508C171.06+144.444+170.425+144.433+169.817+144.476C169.209+144.519+168.67+144.615+168.201+144.764C167.732+144.913+167.358+145.127+167.081+145.404C166.804+145.681+166.665+146.033+166.665+146.46C166.665+147.057+166.841+147.521+167.193+147.852C167.545+148.183+168.03+148.348+168.649+148.348Z" opacity="1" fill="#3b4252"/>
<path fill="#3b4252" d="M188.169+139.42C187.508+139.185+186.91+139.068+186.377+139.068C185.63+139.068+185.006+139.265+184.505+139.66C184.004+140.055+183.668+140.561+183.497+141.18L183.497+151.516L179.337+151.516L179.337+135.516L182.569+135.516L183.049+137.628L183.177+137.628C183.54+136.839+184.03+136.231+184.649+135.804C185.268+135.377+185.993+135.164+186.825+135.164C187.38+135.164+188.009+135.281+188.713+135.516L188.169+139.42Z" opacity="1"/>
<path fill="#3b4252" opacity="1" d="M201.897+150.524C201.257+150.993+200.484+151.351+199.577+151.596C198.67+151.841+197.737+151.964+196.777+151.964C195.497+151.964+194.414+151.761+193.529+151.356C192.644+150.951+191.924+150.38+191.369+149.644C190.814+148.908+190.414+148.017+190.169+146.972C189.924+145.927+189.801+144.775+189.801+143.516C189.801+140.807+190.409+138.721+191.625+137.26C192.841+135.799+194.612+135.068+196.937+135.068C198.11+135.068+199.054+135.164+199.769+135.356C200.484+135.548+201.129+135.793+201.705+136.092L200.713+139.484C200.222+139.249+199.737+139.068+199.257+138.94C198.777+138.812+198.228+138.748+197.609+138.748C196.457+138.748+195.582+139.127+194.985+139.884C194.388+140.641+194.089+141.852+194.089+143.516C194.089+144.199+194.164+144.828+194.313+145.404C194.462+145.98+194.686+146.481+194.985+146.908C195.284+147.335+195.673+147.671+196.153+147.916C196.633+148.161+197.193+148.284+197.833+148.284C198.537+148.284+199.134+148.193+199.625+148.012C200.116+147.831+200.553+147.612+200.937+147.356L201.897+150.524Z"/>
<path d="M214.217+151.516L214.217+142.428C214.217+141.127+214.036+140.188+213.673+139.612C213.31+139.036+212.649+138.748+211.689+138.748C210.985+138.748+210.34+138.988+209.753+139.468C209.166+139.948+208.777+140.561+208.585+141.308L208.585+151.516L204.425+151.516L204.425+129.116L208.585+129.116L208.585+137.308L208.713+137.308C209.225+136.625+209.854+136.081+210.601+135.676C211.348+135.271+212.297+135.068+213.449+135.068C214.26+135.068+214.974+135.175+215.593+135.388C216.212+135.601+216.729+135.953+217.145+136.444C217.561+136.935+217.87+137.601+218.073+138.444C218.276+139.287+218.377+140.327+218.377+141.564L218.377+151.516L214.217+151.516Z" opacity="1" fill="#3b4252"/>
<path d="M222.249+135.516L226.409+135.516L226.409+151.516L222.249+151.516L222.249+135.516ZM221.641+131.004C221.641+130.385+221.87+129.857+222.329+129.42C222.788+128.983+223.422+128.764+224.233+128.764C225.044+128.764+225.7+128.983+226.201+129.42C226.702+129.857+226.953+130.385+226.953+131.004C226.953+131.623+226.702+132.14+226.201+132.556C225.7+132.972+225.044+133.18+224.233+133.18C223.422+133.18+222.788+132.972+222.329+132.556C221.87+132.14+221.641+131.623+221.641+131.004Z" opacity="1" fill="#3b4252"/>
<path opacity="1" d="M236.009+143.9L236.553+146.364L236.713+146.364L237.161+143.836L239.881+135.516L244.361+135.516L237.673+151.676L235.145+151.676L228.201+135.516L233.033+135.516L236.009+143.9Z" fill="#3b4252"/>
<path d="M258.537+150.14C257.897+150.652+257.028+151.084+255.929+151.436C254.83+151.788+253.662+151.964+252.425+151.964C249.844+151.964+247.956+151.212+246.761+149.708C245.566+148.204+244.969+146.14+244.969+143.516C244.969+140.7+245.641+138.588+246.985+137.18C248.329+135.772+250.217+135.068+252.649+135.068C253.46+135.068+254.249+135.175+255.017+135.388C255.785+135.601+256.468+135.953+257.065+136.444C257.662+136.935+258.142+137.596+258.505+138.428C258.868+139.26+259.049+140.295+259.049+141.532C259.049+141.98+259.022+142.46+258.969+142.972C258.916+143.484+258.836+144.017+258.729+144.572L249.129+144.572C249.193+145.916+249.54+146.929+250.169+147.612C250.798+148.295+251.817+148.636+253.225+148.636C254.1+148.636+254.884+148.503+255.577+148.236C256.27+147.969+256.798+147.697+257.161+147.42L258.537+150.14ZM252.585+138.396C251.497+138.396+250.692+138.721+250.169+139.372C249.646+140.023+249.332+140.892+249.225+141.98L255.177+141.98C255.262+140.828+255.086+139.943+254.649+139.324C254.212+138.705+253.524+138.396+252.585+138.396Z" opacity="1" fill="#3b4252"/>
<path opacity="1" d="M261.897+136.444C262.75+136.06+263.764+135.756+264.937+135.532C266.11+135.308+267.337+135.196+268.617+135.196C269.726+135.196+270.654+135.329+271.401+135.596C272.148+135.863+272.74+136.241+273.177+136.732C273.614+137.223+273.924+137.809+274.105+138.492C274.286+139.175+274.377+139.943+274.377+140.796C274.377+141.735+274.345+142.679+274.281+143.628C274.217+144.577+274.18+145.511+274.169+146.428C274.158+147.345+274.185+148.236+274.249+149.1C274.313+149.964+274.473+150.78+274.729+151.548L271.337+151.548L270.665+149.34L270.505+149.34C270.078+150.001+269.486+150.572+268.729+151.052C267.972+151.532+266.996+151.772+265.801+151.772C265.054+151.772+264.382+151.66+263.785+151.436C263.188+151.212+262.676+150.892+262.249+150.476C261.822+150.06+261.492+149.569+261.257+149.004C261.022+148.439+260.905+147.804+260.905+147.1C260.905+146.119+261.124+145.292+261.561+144.62C261.998+143.948+262.628+143.404+263.449+142.988C264.27+142.572+265.252+142.284+266.393+142.124C267.534+141.964+268.809+141.916+270.217+141.98C270.366+140.785+270.281+139.927+269.961+139.404C269.641+138.881+268.926+138.62+267.817+138.62C266.985+138.62+266.105+138.705+265.177+138.876C264.249+139.047+263.486+139.271+262.889+139.548L261.897+136.444ZM267.177+148.348C268.009+148.348+268.67+148.161+269.161+147.788C269.652+147.415+270.014+147.015+270.249+146.588L270.249+144.508C269.588+144.444+268.953+144.433+268.345+144.476C267.737+144.519+267.198+144.615+266.729+144.764C266.26+144.913+265.886+145.127+265.609+145.404C265.332+145.681+265.193+146.033+265.193+146.46C265.193+147.057+265.369+147.521+265.721+147.852C266.073+148.183+266.558+148.348+267.177+148.348Z" fill="#3b4252"/>
<path d="M282.153+146.14C282.153+146.887+282.249+147.431+282.441+147.772C282.633+148.113+282.942+148.284+283.369+148.284C283.625+148.284+283.876+148.263+284.121+148.22C284.366+148.177+284.67+148.081+285.033+147.932L285.481+151.196C285.14+151.367+284.617+151.537+283.913+151.708C283.209+151.879+282.484+151.964+281.737+151.964C280.521+151.964+279.593+151.681+278.953+151.116C278.313+150.551+277.993+149.617+277.993+148.316L277.993+129.116L282.153+129.116L282.153+146.14Z" opacity="1" fill="#3b4252"/>
<path opacity="1" fill="#3b4252" d="M287.273+129.116L291.433+129.116L291.433+136.796L291.561+136.796C292.009+136.284+292.585+135.879+293.289+135.58C293.993+135.281+294.772+135.132+295.625+135.132C297.545+135.132+299.012+135.788+300.025+137.1C301.038+138.412+301.545+140.412+301.545+143.1C301.545+145.98+300.836+148.167+299.417+149.66C297.998+151.153+296.052+151.9+293.577+151.9C292.212+151.9+290.964+151.788+289.833+151.564C288.702+151.34+287.849+151.089+287.273+150.812L287.273+129.116ZM294.409+138.652C293.641+138.652+293.017+138.849+292.537+139.244C292.057+139.639+291.689+140.209+291.433+140.956L291.433+147.932C291.774+148.103+292.142+148.22+292.537+148.284C292.932+148.348+293.353+148.38+293.801+148.38C294.932+148.38+295.79+147.969+296.377+147.148C296.964+146.327+297.257+145.02+297.257+143.228C297.257+140.177+296.308+138.652+294.409+138.652Z"/>
<path d="M308.425+135.516L308.425+144.604C308.425+145.905+308.58+146.844+308.889+147.42C309.198+147.996+309.801+148.284+310.697+148.284C311.486+148.284+312.142+148.049+312.665+147.58C313.188+147.111+313.577+146.535+313.833+145.852L313.833+135.516L317.993+135.516L317.993+146.652C317.993+147.527+318.036+148.385+318.121+149.228C318.206+150.071+318.334+150.833+318.505+151.516L315.369+151.516L314.633+149.148L314.505+149.148C314.014+149.959+313.332+150.631+312.457+151.164C311.582+151.697+310.548+151.964+309.353+151.964C308.542+151.964+307.817+151.857+307.177+151.644C306.537+151.431+306.004+151.079+305.577+150.588C305.15+150.097+304.825+149.436+304.601+148.604C304.377+147.772+304.265+146.727+304.265+145.468L304.265+135.516L308.425+135.516Z" opacity="1" fill="#3b4252"/>
<path d="M330.729+151.516L330.729+142.812C330.729+141.34+330.59+140.295+330.313+139.676C330.036+139.057+329.46+138.748+328.585+138.748C327.86+138.748+327.273+138.945+326.825+139.34C326.377+139.735+326.036+140.241+325.801+140.86L325.801+151.516L321.641+151.516L321.641+135.516L324.873+135.516L325.353+137.628L325.481+137.628C325.972+136.945+326.596+136.348+327.353+135.836C328.11+135.324+329.086+135.068+330.281+135.068C331.305+135.068+332.142+135.276+332.793+135.692C333.444+136.108+333.95+136.807+334.313+137.788C334.804+136.956+335.433+136.295+336.201+135.804C336.969+135.313+337.897+135.068+338.985+135.068C339.881+135.068+340.644+135.175+341.273+135.388C341.902+135.601+342.414+135.969+342.809+136.492C343.204+137.015+343.497+137.713+343.689+138.588C343.881+139.463+343.977+140.572+343.977+141.916L343.977+151.516L339.817+151.516L339.817+142.524C339.817+141.265+339.684+140.321+339.417+139.692C339.15+139.063+338.558+138.748+337.641+138.748C336.894+138.748+336.302+138.951+335.865+139.356C335.428+139.761+335.102+140.316+334.889+141.02L334.889+151.516L330.729+151.516Z" opacity="1" fill="#3b4252"/>
<path opacity="1" fill="#3b4252" d="M354.025+147.1C354.025+146.673+353.844+146.332+353.481+146.076C353.118+145.82+352.67+145.585+352.137+145.372C351.604+145.159+351.017+144.94+350.377+144.716C349.737+144.492+349.15+144.183+348.617+143.788C348.084+143.393+347.636+142.892+347.273+142.284C346.91+141.676+346.729+140.892+346.729+139.932C346.729+138.353+347.198+137.148+348.137+136.316C349.076+135.484+350.43+135.068+352.201+135.068C353.417+135.068+354.516+135.196+355.497+135.452C356.478+135.708+357.246+135.996+357.801+136.316L356.873+139.324C356.382+139.132+355.764+138.929+355.017+138.716C354.27+138.503+353.513+138.396+352.745+138.396C351.508+138.396+350.889+138.876+350.889+139.836C350.889+140.22+351.07+140.529+351.433+140.764C351.796+140.999+352.244+141.217+352.777+141.42C353.31+141.623+353.897+141.841+354.537+142.076C355.177+142.311+355.764+142.615+356.297+142.988C356.83+143.361+357.278+143.847+357.641+144.444C358.004+145.041+358.185+145.809+358.185+146.748C358.185+148.369+357.668+149.644+356.633+150.572C355.598+151.5+354.046+151.964+351.977+151.964C350.846+151.964+349.785+151.82+348.793+151.532C347.801+151.244+346.996+150.908+346.377+150.524L347.529+147.42C348.02+147.697+348.67+147.969+349.481+148.236C350.292+148.503+351.124+148.636+351.977+148.636C352.596+148.636+353.092+148.519+353.465+148.284C353.838+148.049+354.025+147.655+354.025+147.1Z"/>
<path opacity="1" fill="#3b4252" d="M360.425+149.404C360.425+148.657+360.66+148.065+361.129+147.628C361.598+147.191+362.217+146.972+362.985+146.972C363.796+146.972+364.436+147.191+364.905+147.628C365.374+148.065+365.609+148.657+365.609+149.404C365.609+150.151+365.374+150.748+364.905+151.196C364.436+151.644+363.796+151.868+362.985+151.868C362.217+151.868+361.598+151.644+361.129+151.196C360.66+150.748+360.425+150.151+360.425+149.404Z"/>
<path d="M380.105+150.524C379.465+150.993+378.692+151.351+377.785+151.596C376.878+151.841+375.945+151.964+374.985+151.964C373.705+151.964+372.622+151.761+371.737+151.356C370.852+150.951+370.132+150.38+369.577+149.644C369.022+148.908+368.622+148.017+368.377+146.972C368.132+145.927+368.009+144.775+368.009+143.516C368.009+140.807+368.617+138.721+369.833+137.26C371.049+135.799+372.82+135.068+375.145+135.068C376.318+135.068+377.262+135.164+377.977+135.356C378.692+135.548+379.337+135.793+379.913+136.092L378.921+139.484C378.43+139.249+377.945+139.068+377.465+138.94C376.985+138.812+376.436+138.748+375.817+138.748C374.665+138.748+373.79+139.127+373.193+139.884C372.596+140.641+372.297+141.852+372.297+143.516C372.297+144.199+372.372+144.828+372.521+145.404C372.67+145.98+372.894+146.481+373.193+146.908C373.492+147.335+373.881+147.671+374.361+147.916C374.841+148.161+375.401+148.284+376.041+148.284C376.745+148.284+377.342+148.193+377.833+148.012C378.324+147.831+378.761+147.612+379.145+147.356L380.105+150.524Z" opacity="1" fill="#3b4252"/>
<path fill="#3b4252" d="M381.865+143.516C381.865+140.807+382.526+138.721+383.849+137.26C385.172+135.799+387.028+135.068+389.417+135.068C390.697+135.068+391.806+135.271+392.745+135.676C393.684+136.081+394.462+136.652+395.081+137.388C395.7+138.124+396.164+139.015+396.473+140.06C396.782+141.105+396.937+142.257+396.937+143.516C396.937+146.225+396.281+148.311+394.969+149.772C393.657+151.233+391.806+151.964+389.417+151.964C388.137+151.964+387.028+151.761+386.089+151.356C385.15+150.951+384.366+150.38+383.737+149.644C383.108+148.908+382.638+148.017+382.329+146.972C382.02+145.927+381.865+144.775+381.865+143.516ZM386.153+143.516C386.153+144.22+386.217+144.871+386.345+145.468C386.473+146.065+386.665+146.588+386.921+147.036C387.177+147.484+387.513+147.831+387.929+148.076C388.345+148.321+388.841+148.444+389.417+148.444C390.505+148.444+391.316+148.049+391.849+147.26C392.382+146.471+392.649+145.223+392.649+143.516C392.649+142.044+392.404+140.855+391.913+139.948C391.422+139.041+390.59+138.588+389.417+138.588C388.393+138.588+387.593+138.972+387.017+139.74C386.441+140.508+386.153+141.767+386.153+143.516Z" opacity="1"/>
<path opacity="1" d="M408.905+151.516L408.905+142.812C408.905+141.34+408.766+140.295+408.489+139.676C408.212+139.057+407.636+138.748+406.761+138.748C406.036+138.748+405.449+138.945+405.001+139.34C404.553+139.735+404.212+140.241+403.977+140.86L403.977+151.516L399.817+151.516L399.817+135.516L403.049+135.516L403.529+137.628L403.657+137.628C404.148+136.945+404.772+136.348+405.529+135.836C406.286+135.324+407.262+135.068+408.457+135.068C409.481+135.068+410.318+135.276+410.969+135.692C411.62+136.108+412.126+136.807+412.489+137.788C412.98+136.956+413.609+136.295+414.377+135.804C415.145+135.313+416.073+135.068+417.161+135.068C418.057+135.068+418.82+135.175+419.449+135.388C420.078+135.601+420.59+135.969+420.985+136.492C421.38+137.015+421.673+137.713+421.865+138.588C422.057+139.463+422.153+140.572+422.153+141.916L422.153+151.516L417.993+151.516L417.993+142.524C417.993+141.265+417.86+140.321+417.593+139.692C417.326+139.063+416.734+138.748+415.817+138.748C415.07+138.748+414.478+138.951+414.041+139.356C413.604+139.761+413.278+140.316+413.065+141.02L413.065+151.516L408.905+151.516Z" fill="#3b4252"/>
</g>
<path stroke-linejoin="round" opacity="1" stroke-width="12.1959" d="M-2.39967+1047.52L1972.69+1047.52C1976.16+1047.52+1978.98+1050.34+1978.98+1053.81L1978.98+1084.96C1978.98+1088.43+1976.16+1091.25+1972.69+1091.25L-2.39967+1091.25C-5.87355+1091.25-8.68969+1088.43-8.68969+1084.96L-8.68969+1053.81C-8.68969+1050.34-5.87355+1047.52-2.39967+1047.52Z" fill="#4c566a" stroke="#697793" stroke-linecap="round"/>
</g>
</svg>
