<?xml version="1.0" encoding="UTF-8"?>
<!DOCTYPE svg  PUBLIC '-//W3C//DTD SVG 1.1//EN'  'http://www.w3.org/Graphics/SVG/1.1/DTD/svg11.dtd'>
<svg clip-rule="evenodd" stroke-linecap="round" stroke-linejoin="round" version="1.1" viewBox="0 0 29.809 29.66" xml:space="preserve" xmlns="http://www.w3.org/2000/svg" xmlns:vectornator="http://vectornator.io" xmlns:xlink="http://www.w3.org/1999/xlink">
<metadata>
<vectornator:setting key="UndoHistoryDisabled" value="false"/>
<vectornator:setting key="WDSnapToEdges" value="false"/>
<vectornator:setting key="VNSnapToGuides" value="true"/>
<vectornator:setting key="WDCMYKEnabledKey" value="false"/>
<vectornator:setting key="VNPencilOnly" value="false"/>
<vectornator:setting key="IsTimeLapseWatermarkDisabled" value="false"/>
<vectornator:setting key="WDDynamicGuides" value="false"/>
<vectornator:setting key="WDOutlineMode" value="false"/>
<vectornator:setting key="VNDimensionsVisible" value="true"/>
<vectornator:setting key="WDDisplayWhiteBackground" value="false"/>
<vectornator:setting key="WDSnapToPoints" value="false"/>
<vectornator:setting key="WDSnapToGrid" value="false"/>
<vectornator:setting key="WDIsolateActiveLayer" value="false"/>
<vectornator:setting key="WDRulersVisible" value="true"/>
<vectornator:setting key="WDUnits" value="Pixels"/>
<vectornator:setting key="WDGuidesVisible" value="true"/>
</metadata>

<g vectornator:layerName="Layer 2">
<path d="m14.9 0.02039c-8.2176-1.2e-6 -14.875 6.664-14.875 14.875 2.6e-6 8.211 6.6574 14.844 14.875 14.844 8.2176 0 14.906-6.6327 14.906-14.844 1e-4 -8.211-6.6886-14.875-14.906-14.875z" fill="#005ab6"/>
<path d="m14.931 0.95789c7.7232 0 13.969 6.2359 13.969 13.938 0 7.7016-6.2456 13.969-13.969 13.969-7.7231 0-14-6.2671-14-13.969 0-7.7016 6.2768-13.938 14-13.938z" fill="#a2cfe3"/>
<path d="m14.931 0.7502c-7.7743 5e-6 -14.093 6.3147-14.093 14.114 1e-6 7.799 6.3183 14.145 14.093 14.145 7.7742 0 14.061-6.3464 14.061-14.145 0-7.799-6.2869-14.114-14.061-14.114z" fill="#005ab6"/>
<path d="m7.8987 14.88c0-3.8685 3.1413-7.0045 7.0164-7.0045s7.0165 3.136 7.0165 7.0045c0 3.8684-3.1414 7.0045-7.0165 7.0045s-7.0164-3.1361-7.0164-7.0045z" fill="#f5f5f5"/>
<path d="m8.7748 14.88c0-3.3946 2.7492-6.1464 6.1404-6.1464 3.3913 0 6.1404 2.7518 6.1404 6.1464 0 3.3945-2.7491 6.1464-6.1404 6.1464-3.3912 0-6.1404-2.7519-6.1404-6.1464z" fill="#f5f5f5"/>
<path d="m9.7716 14.879c0-2.8307 2.3036-5.1254 5.1453-5.1254s5.1453 2.2947 5.1453 5.1254-2.3036 5.1254-5.1453 5.1254-5.1453-2.2947-5.1453-5.1254z" fill="#004387"/>
<path d="m10.824 14.88c0-2.2747 1.8315-4.1187 4.0907-4.1187s4.0907 1.844 4.0907 4.1187c0 2.2746-1.8315 4.1186-4.0907 4.1186s-4.0907-1.844-4.0907-4.1186z" fill="#004387"/>
<path d="m14.931 13.989c0.4813 0 0.8751 0.3937 0.875 0.875 0 0.4813-0.3937 0.875-0.875 0.875-0.4812 0-0.8749-0.3937-0.875-0.875 0-0.4813 0.3938-0.875 0.875-0.875z" fill="#fd9f28"/>
<path d="m14.931 13.989c0.4813 0 0.8751 0.3937 0.875 0.875 0 0.4813-0.3937 0.875-0.875 0.875-0.4812 0-0.8749-0.3937-0.875-0.875 0-0.4812 0.3938-0.875 0.875-0.875z" fill="#fd9f28"/>
<path d="m14.915 13.208c-0.9165 0-1.6562 0.7312-1.6562 1.6562 0 0.9251 0.7397 1.6875 1.6562 1.6875 0.9166 0 1.6563-0.7624 1.6563-1.6875 0-0.925-0.7397-1.6562-1.6563-1.6562z" fill="#004387"/>
<path d="m14.931 13.989c0.4813 0 0.8751 0.3937 0.875 0.875 0 0.4813-0.3937 0.875-0.875 0.875-0.4812 0-0.8749-0.3937-0.875-0.875 1e-4 -0.4812 0.3938-0.875 0.875-0.875z" fill="#fd9f28"/>
<path d="m14.917 13.963c-0.5037 0-0.9158 0.4121-0.9158 0.9158s0.4121 0.9158 0.9158 0.9158 0.9158-0.4121 0.9158-0.9158-0.4121-0.9158-0.9158-0.9158z"/>
<path d="m21.366 6.8975c-0.9421-0.81899-1.4752-0.84354-1.7321-1.1626-0.2569-0.31905 0.6088-0.04104 0.7044-0.11359 0.0872-0.06626-0.929-0.91887-0.4829-0.75398 0.446 0.16489 1.5213 0.89707 2.2671 1.4135 0.1732 0.11996 0.3097 0.22365 0.4274 0.32314 0.3891 0.32883 0.5069 0.54074 0.5069 0.54074s0.8655 0.97823 1.2203 1.4669c0.9184 1.265 1.5193 2.7294 1.5193 2.7294s0.0688 0.2002-0.0085 0.3651-0.142 0.2618-0.3009 0.2944c-0.4486 0.092-0.6402-0.2918-0.6402-0.2918s-0.2688-0.7594-0.5268-1.3042c-0.258-0.54478-0.6999-1.0932-0.9178-1.3937-0.8797-1.2135-1.0941-1.2944-2.0362-2.1134z" fill="#fff"/>
<path d="m18.421 5.2229s-0.1149-0.08696-0.1443-0.22678-0.0242-0.24336 0.0268-0.33249c0.0501-0.08777 0.0913-0.1772 0.2382-0.24301s0.3494-0.02024 0.3494-0.02024l1.2775 0.6121s0.1765 0.05244 0.2287 0.2012c0.0521 0.14876 0.0229 0.29656-0.0201 0.39384-0.0389 0.08796-0.1076 0.16838-0.2542 0.23314s-0.3322 0.02591-0.3322 0.02591l-1.3698-0.64367z" fill="#fff"/>
<path d="m8.7445 22.668c0.94208 0.819 1.4752 0.8435 1.7321 1.1626 0.257 0.319-0.60882 0.041-0.70436 0.1135-0.08723 0.0663 0.92896 0.9189 0.48286 0.754-0.44602-0.1649-1.5213-0.897-2.2671-1.4135-0.17323-0.12-0.30964-0.2237-0.42735-0.3232-0.38909-0.3288-0.50692-0.5407-0.50692-0.5407s-0.86549-0.9782-1.2203-1.4669c-0.91847-1.265-1.5193-2.7294-1.5193-2.7294s-0.06887-0.2002 0.00847-0.3651c0.07735-0.1649 0.14202-0.2618 0.30091-0.2944 0.44861-0.0921 0.64021 0.2918 0.64021 0.2918s0.26877 0.7594 0.52675 1.3042c0.25799 0.5448 0.69997 1.0932 0.91782 1.3937 0.87971 1.2136 1.0942 1.2944 2.0362 2.1134z" fill="#fff"/>
<path d="m11.689 24.343s0.1149 0.087 0.1443 0.2268 0.0242 0.2433-0.0267 0.3325c-0.0502 0.0877-0.0913 0.1772-0.2383 0.243-0.1469 0.0658-0.3494 0.0202-0.3494 0.0202l-1.2775-0.6121s-0.17647-0.0524-0.2286-0.2012c-0.05214-0.1488-0.02296-0.2965 0.02008-0.3938 0.03891-0.088 0.10756-0.1684 0.25415-0.2332 0.14661-0.0647 0.33221-0.0259 0.33221-0.0259l1.3698 0.6437z" fill="#fff"/>
</g>
</svg>
