<?xml version="1.0" encoding="UTF-8"?>
<!DOCTYPE svg  PUBLIC '-//W3C//DTD SVG 1.1//EN'  'http://www.w3.org/Graphics/SVG/1.1/DTD/svg11.dtd'>
<svg clip-rule="evenodd" stroke-linecap="round" stroke-linejoin="round" version="1.1" viewBox="0 0 524.25 327.06" xml:space="preserve" xmlns="http://www.w3.org/2000/svg">
<path d="m401.64 45.303c-65.382 0-118.35 53.021-118.35 118.35 0 65.33 52.969 118.1 118.35 118.1s118.6-52.773 118.6-118.1c0-65.329-53.218-118.35-118.6-118.35z" fill="#f5f5f5"/>
<path d="m400.89 52.513c61.449 0 111.14 49.615 111.14 110.89s-49.692 111.14-111.14 111.14-111.39-49.864-111.39-111.14 49.941-110.89 111.39-110.89z" fill="#a2cfe3"/>
<path d="m400.89 50.861c-61.855 1e-4 -112.13 50.242-112.13 112.29s50.271 112.55 112.13 112.55 111.88-50.494 111.88-112.55-50.021-112.29-111.88-112.29z"/>
<path d="m344.94 163.28c0-30.779 24.993-55.73 55.825-55.73s55.825 24.951 55.825 55.73-24.993 55.73-55.825 55.73-55.825-24.951-55.825-55.73z" fill="#f5f5f5"/>
<path d="m351.91 163.28c0-27.009 21.873-48.903 48.855-48.903s48.855 21.894 48.855 48.903c0 27.008-21.873 48.903-48.855 48.903s-48.855-21.895-48.855-48.903z"/>
<path d="m359.84 163.27c0-22.521 18.328-40.779 40.937-40.779 22.61 0 40.938 18.258 40.938 40.779 0 22.522-18.328 40.78-40.938 40.78-22.609 0-40.937-18.258-40.937-40.78z" fill="#fff"/>
<path d="m368.22 163.28c0-18.098 14.572-32.77 32.547-32.77s32.547 14.672 32.547 32.77-14.572 32.769-32.547 32.769-32.547-14.671-32.547-32.769z" fill="#fff"/>
<path d="m400.89 156.2c3.83 0 6.962 3.132 6.962 6.962 0 3.829-3.132 6.961-6.962 6.961-3.829 0-6.961-3.132-6.961-6.961 0-3.83 3.132-6.962 6.961-6.962z" fill="#fd9f28"/>
<path d="m400.89 156.2c3.83 0 6.962 3.132 6.962 6.962 0 3.829-3.132 6.961-6.962 6.961-3.829 0-6.961-3.132-6.961-6.961 0-3.83 3.132-6.962 6.961-6.962z" fill="#fd9f28"/>
<path d="m400.76 149.98c-7.292 0-13.178 5.818-13.178 13.178 0 7.359 5.886 13.426 13.178 13.426s13.178-6.067 13.178-13.426c0-7.36-5.886-13.178-13.178-13.178z"/>
<path d="m400.89 156.2c3.83 0 6.962 3.132 6.962 6.962 0 3.829-3.132 6.961-6.962 6.961-3.829 0-6.961-3.132-6.961-6.961 0-3.83 3.132-6.962 6.961-6.962z" fill="#fd9f28"/>
<path d="m400.78 155.99c-4.007 0-7.286 3.279-7.286 7.286 0 4.008 3.279 7.287 7.286 7.287 4.008 0 7.286-3.279 7.286-7.287 1e-3 -4.007-3.278-7.286-7.286-7.286z"/>
<path d="m452.09 99.771c-7.496-6.5161-11.737-6.7115-13.781-9.2499s4.844-0.3265 5.604-0.9038c0.694-0.5271-7.391-7.3108-3.842-5.9989 3.549 1.312 12.105 7.1375 18.038 11.247 1.379 0.9544 2.464 1.7794 3.401 2.571 3.095 2.6158 4.033 4.3028 4.033 4.3028s6.886 7.783 9.709 11.671c7.307 10.065 12.088 21.716 12.088 21.716s0.548 1.593-0.068 2.905c-0.615 1.312-1.13 2.083-2.394 2.342-3.569 0.732-5.093-2.321-5.093-2.321s-2.139-6.042-4.191-10.377c-2.053-4.335-5.57-8.698-7.303-11.089-6.999-9.656-8.705-10.299-16.201-16.815z" fill="#fff"/>
<path d="m428.66 86.447s-0.914-0.6919-1.148-1.8044c-0.233-1.1124-0.192-1.9362 0.213-2.6454 0.399-0.6984 0.727-1.4098 1.896-1.9334 1.169-0.5237 2.78-0.1611 2.78-0.1611l10.164 4.8701s1.405 0.4172 1.819 1.6008c0.415 1.1836 0.183 2.3595-0.159 3.1336-0.31 0.6998-0.856 1.3396-2.023 1.8549-1.166 0.5153-2.643 0.2061-2.643 0.2061l-10.899-5.1212z" fill="#fff"/>
<path d="m351.67 225.25c7.495 6.516 11.737 6.711 13.781 9.25 2.044 2.538-4.844 0.326-5.605 0.903-0.694 0.527 7.392 7.311 3.843 5.999s-12.105-7.137-18.039-11.246c-1.378-0.955-2.463-1.78-3.4-2.571-3.096-2.617-4.033-4.303-4.033-4.303s-6.886-7.783-9.709-11.671c-7.308-10.065-12.088-21.716-12.088-21.716s-0.548-1.593 0.067-2.905c0.616-1.312 1.13-2.083 2.394-2.342 3.57-0.733 5.094 2.321 5.094 2.321s2.138 6.042 4.191 10.377c2.053 4.334 5.569 8.698 7.303 11.089 6.999 9.655 8.705 10.299 16.201 16.815z" fill="#fff"/>
<path d="m375.1 238.57s0.914 0.692 1.148 1.805c0.234 1.112 0.193 1.936-0.213 2.645-0.399 0.699-0.726 1.41-1.895 1.934-1.169 0.523-2.781 0.161-2.781 0.161l-10.164-4.87s-1.404-0.418-1.819-1.601c-0.414-1.184-0.182-2.36 0.16-3.134 0.31-0.7 0.856-1.339 2.022-1.855 1.167-0.515 2.644-0.206 2.644-0.206l10.898 5.121z" fill="#fff"/>
<path d="m8.9659 0h385.66c4.952 0 8.966 3.0309 8.966 6.7697v313.52c0 3.738-4.014 6.769-8.966 6.769h-385.66c-4.9517 0-8.9659-3.031-8.9659-6.769v-313.52c0-3.7388 4.0142-6.7697 8.9659-6.7697z" fill="#141417" stroke="#fefefe" stroke-linecap="round" stroke-linejoin="round" stroke-width="5.72"/>
<path d="m107.59 239.63c-3.397-12.95 9.484-27.549 28.771-32.609 19.287-5.059 37.676 1.337 41.073 14.287 3.398 12.95-9.484 27.549-28.771 32.609-19.287 5.059-37.676-1.337-41.073-14.287z" fill="#fefefe"/>
<path d="m210.89 218.82c-4.073-12.753 8.023-28.01 27.018-34.076 18.994-6.066 37.694-0.645 41.767 12.108s-8.023 28.01-27.018 34.076c-18.994 6.066-37.694 0.645-41.767-12.108z" fill="#fefefe"/>
<path d="m165.06 88.977h9.514c1.421 0 3.09-1.3951 3.811 0.3445 0.413 0.9939 0.233 4.7257 0.233 5.9996l-0.72 131.94c0 3.504-1.091 3.248-3.324 3.248h-9.514c-2.234 0-4.045-2.841-4.045-6.344v-128.85c0-3.5037 1.811-6.3441 4.045-6.3441z" fill="#fefefe"/>
<path d="m272.01 67.529l2.067 0.0187c3.417 0 6.147 1.18 6.147 5.6084v123.61c0 4.429-2.771 8.019-6.188 8.019h-1.178c-3.417 0-6.187-3.59-6.187-8.019v-123.61c0-4.4284 1.922-5.6271 5.339-5.6271z" fill="#fefefe"/>
<path d="m279.22 68.895l0.81 1.9567c0.638 6.1191-0.921 4.1438-4.641 4.7764l-103.83 17.658c-3.72 0.6326-9.417 5.7646-10.502 3.5425l0.096-3.685 0.089-4.6035c-0.083-1.4998 1.1-2.1383 2.151-2.9272 1.06-0.7963 1.994-0.822 3.862-1.1397l103.83-17.658c3.72-0.6326 7.049-0.1422 8.135 2.0799z" fill="#fefefe"/>
</svg>
